<?xml version="1.0" encoding="utf-8"?>
<!-- Generator: Adobe Illustrator 24.0.2, SVG Export Plug-In . SVG Version: 6.00 Build 0)  -->
<svg version="1.1" id="Capa_1" xmlns="http://www.w3.org/2000/svg" xmlns:xlink="http://www.w3.org/1999/xlink" x="0px" y="0px"
	 viewBox="0 0 566.93 566.93" style="enable-background:new 0 0 566.93 566.93;" xml:space="preserve">
<style type="text/css">
	.st0{fill:#FBECC4;}
	.st1{fill:#DA5B51;}
	.st2{fill:#C34941;}
	.st3{fill:#E07A69;}
	.st4{fill:#F2CAAD;}
	.st5{fill:#D4514A;}
	.st6{fill:#213554;}
</style>
<g>
	<path class="st0" d="M407.6,222.94c-0.1,0.54-0.26,1.06-0.64,1.48c-0.49,1.47-1.48,2.63-2.36,3.85c-2.64,3.65-5.55,7.05-9.38,9.52
		c-0.15,0.11-0.29,0.22-0.44,0.33c-0.14,0.1-0.29,0.2-0.43,0.3c-0.16,0.09-0.31,0.18-0.47,0.27c-2.71,1.71-5.53,3.21-8.64,4.1
		c-0.44-0.05-0.85,0.02-1.21,0.3c-1.27,0.74-2.74,0.61-4.11,0.89c-0.51,0-1.03-0.06-1.5,0.2c-0.58,0.04-1.16,0.08-1.74,0.12
		c-0.44-0.3-0.87-0.34-1.26,0.08c-0.76,0.18-1.52,0.17-2.28,0.01c-0.49-0.48-1.02-0.41-1.56-0.11c-0.38-0.03-0.76-0.06-1.14-0.09
		c-0.59-0.29-1.21-0.25-1.83-0.18c-0.57-0.13-1.14-0.25-1.72-0.38c-0.33-0.21-0.68-0.24-1.06-0.16c-0.54-0.15-1.08-0.3-1.61-0.45
		c-0.17-0.05-0.33-0.09-0.5-0.14c-1.37-0.35-2.72-0.76-3.93-1.51c-0.19-0.08-0.37-0.15-0.56-0.23c-0.12-0.06-0.23-0.12-0.35-0.17
		c-0.16-0.07-0.33-0.13-0.49-0.2c-1.88-0.66-3.32-2.07-5.07-2.95c-1.56-1.43-3.11-2.86-4.67-4.29c-0.83-1.08-1.68-2.14-2.48-3.25
		c-0.78-1.08-1.2-0.66-1.61,0.29c-0.81,1.87-2,3.52-3.3,5.06c-7.44,8.76-16.98,12.8-28.42,12.42c-1.48-0.05-2.94-0.33-4.41-0.5
		c-0.12-0.02-0.25-0.04-0.37-0.05c-0.35-0.1-0.69-0.2-1.04-0.3c-0.41-0.32-0.88-0.32-1.36-0.27c-0.13-0.04-0.25-0.09-0.38-0.13
		c-0.21-0.31-0.51-0.37-0.85-0.3c-0.52-0.16-1.04-0.33-1.57-0.49c-0.16-0.05-0.33-0.09-0.49-0.14c-0.42-0.17-0.84-0.33-1.26-0.5
		c-0.16-0.06-0.32-0.11-0.48-0.17c-0.17-0.1-0.33-0.21-0.5-0.31c-0.44-0.2-0.88-0.4-1.32-0.6c-0.07-0.05-0.15-0.1-0.24-0.13
		c-0.15-0.08-0.29-0.15-0.44-0.23L298,243.9c-0.12-0.4-0.44-0.51-0.8-0.54c-0.13-0.09-0.27-0.19-0.4-0.28
		c-0.16-0.06-0.32-0.13-0.49-0.19c-0.15-0.11-0.29-0.21-0.44-0.32c-0.03-0.07-0.09-0.1-0.17-0.08c-0.62-0.41-1.24-0.81-1.86-1.22
		c-0.12-0.32-0.34-0.49-0.68-0.51c-0.95-0.6-1.82-1.32-2.58-2.15c-0.1-0.31-0.31-0.5-0.63-0.57c-0.68-0.6-1.36-1.2-2.03-1.8
		c-0.03-0.12-0.06-0.25-0.1-0.37c-0.15-0.14-0.29-0.29-0.44-0.43c-1.4-1.56-2.61-3.26-3.6-5.11c-0.14-0.25-0.15-0.63-0.5-0.67
		c-0.42-0.05-0.54,0.32-0.72,0.62c-0.66,1.1-1.29,2.22-2.04,3.25c-4.9,6.72-11.42,11.03-19.48,13.07
		c-5.77,1.46-11.51,1.41-17.28,0.02c-2.51-0.6-4.81-1.73-7.21-2.6c-0.13-0.3-0.37-0.38-0.67-0.38c-1.48-0.97-2.95-1.94-4.43-2.9
		c-0.13-0.1-0.26-0.21-0.4-0.31c-0.48-0.58-1.03-1.06-1.69-1.42c0,0-0.05-0.05-0.05-0.05c-0.15-0.39-0.49-0.59-0.8-0.81l-0.03-0.09
		c0,0-0.09-0.01-0.09-0.01c-0.16-0.17-0.33-0.34-0.49-0.51l-0.01-0.07c0,0-0.07,0.01-0.07,0.01c-0.49-0.74-1.06-1.41-1.75-1.97
		c0,0-0.03-0.04-0.03-0.04c0,0-0.06-0.07-0.06-0.07c-0.09-0.13-0.17-0.26-0.26-0.39c-0.91-1.5-2.19-2.74-2.92-4.37
		c-0.52-1.15-1.06-1.38-1.79-0.12c-0.29,0.5-0.77,0.88-1.17,1.31c-0.3,0.08-0.6,0.17-0.62,0.56l0,0c-0.36,0.04-0.55,0.24-0.6,0.59
		l0,0c-0.39,0.04-0.52,0.31-0.56,0.65c-0.69,0.58-1.37,1.16-2.06,1.73c-0.12,0.11-0.24,0.22-0.35,0.33
		c-1.74,1.11-3.45,2.28-5.31,3.21c-7.55,3.79-15.43,4.89-23.73,3.18c-3.31-0.68-6.41-1.92-9.5-3.22c-0.04-0.09-0.12-0.13-0.21-0.11
		c-2.34-1.21-4.42-2.83-6.65-4.22c-0.08-0.27-0.3-0.39-0.54-0.48c-0.03-0.09-0.08-0.14-0.17-0.17c-0.05-0.1-0.1-0.2-0.15-0.3
		c-0.22-0.58-0.57-1.01-1.2-1.16c-0.39-0.39-0.79-0.79-1.18-1.18c-0.15-0.63-0.54-1.03-1.15-1.22c-3.19-3.14-5.26-6.98-6.98-11.04
		c-0.56-1.31-1.12-2.62-1.4-4.02c0.09-0.68,0.18-1.35-0.44-1.86c-0.03-0.28-0.07-0.56-0.1-0.84c0.16-0.23,0.14-0.44-0.06-0.63
		c-0.02-0.14-0.04-0.28-0.06-0.41c0.11-0.51,0.11-0.99-0.29-1.39c-0.21-0.86-0.19-1.74-0.17-2.62c0.34-1.19,0.34-2.39,0-3.58
		c0.01-0.19,0.02-0.38,0.03-0.57c0.17-0.2,0.19-0.41,0.03-0.63c0.02-0.19,0.04-0.38,0.06-0.57c0.42-0.48,0.48-1.04,0.36-1.63
		c0.01-0.11,0.01-0.22,0.02-0.34c0.01-0.24,0.03-0.48,0.04-0.73c1.11-5.58,3.28-10.73,6.75-15.22c4.34-5.61,9.71-9.93,16.52-12.27
		c4.2-1.44,8.45-2.68,12.96-2.51c0.94,0.03,1.05-0.26,0.73-1.15c-0.45-1.24-0.92-2.49-1.04-3.83c-0.01-0.25-0.03-0.5-0.04-0.75
		c-0.03-0.07-0.06-0.13-0.08-0.2c-0.01-0.03,0.01-0.07,0.02-0.11c0.12-0.42,0.09-0.81-0.27-1.11c-0.21-0.96-0.19-1.93-0.15-2.9
		c0.02-0.04,0.06-0.08,0.06-0.11c-0.01-0.08-0.04-0.16-0.06-0.23c-0.04-1.17-0.11-2.34,0.19-3.49c0.33-0.32,0.36-0.7,0.23-1.11
		c0.03-0.32,0.07-0.65,0.1-0.97c0-0.22,0.01-0.44,0.01-0.66c2.78-12.05,10.01-20.49,21.3-25.22c9.29-3.9,18.67-3.51,27.83,0.86
		c1.62,0.77,1.64,0.71,1.89-0.97c1.58-10.32,6.19-18.94,14.13-25.84c5.77-5.01,12.37-8.12,19.8-9.55
		c6.16-1.18,12.28-0.85,18.35,0.79c8.84,2.39,16.13,7.14,21.78,14.29c5.37,6.78,8.32,14.52,8.42,23.24c0.01,1.31,0.3,1.46,1.54,0.98
		c11.2-4.33,22.1-3.68,32.45,2.5c4.98,2.98,8.84,7.2,11.71,12.27c0.12,0.21,0.16,0.46,0.23,0.7c0.08,0.09,0.16,0.18,0.24,0.27
		c0.15,0.31,0.3,0.61,0.45,0.92c0.05,0.09,0.1,0.18,0.15,0.27c0.1,0.21,0.21,0.41,0.31,0.62c0.06,0.15,0.12,0.31,0.17,0.46
		c0.14,0.34,0.28,0.68,0.42,1.02c0.06,0.16,0.12,0.31,0.18,0.47c0.14,0.44,0.29,0.87,0.43,1.31c-0.05,0.34,0.06,0.62,0.35,0.82
		c-0.01,0.1,0.02,0.18,0.1,0.25c0.02,0.18,0.03,0.36,0.05,0.53c1.08,4.39,1.52,8.82,0.83,13.32c-0.31,2-0.85,3.93-1.37,5.88
		c1.45,0.58,2.97,0.23,4.46,0.29c0.19,0.02,0.38,0.04,0.58,0.06c0.19,0.18,0.4,0.23,0.65,0.13c3.7,0.79,7.36,1.71,10.79,3.36
		c4.53,2.19,8.37,5.25,11.49,9.2c0.09,0.07,0.18,0.15,0.27,0.22c1.07,1.47,2.17,2.92,3.02,4.53c0.08,0.09,0.16,0.17,0.24,0.26
		c0.09,0.12,0.18,0.23,0.27,0.35c0.09,0.22,0.18,0.43,0.27,0.65c0.11,0.18,0.23,0.36,0.34,0.54c0.08,0.22,0.17,0.43,0.25,0.65
		c0.11,0.18,0.22,0.35,0.34,0.53c-0.01,0.26,0.05,0.49,0.26,0.65c0.13,0.28,0.26,0.56,0.39,0.83c0.05,0.15,0.1,0.29,0.15,0.44
		c0.13,0.35,0.27,0.7,0.4,1.05c-0.05,0.27-0.01,0.52,0.21,0.71c0.16,0.54,0.32,1.09,0.48,1.63c-0.05,0.5,0.17,0.91,0.42,1.31
		c0.28,1.9,0.57,3.79,0.83,5.69c0.49,3.65-0.16,7.22-0.82,10.79c-0.2,0.52-0.48,1.01-0.43,1.59c-0.53,1.48-1.06,2.97-1.58,4.45
		C407.76,222.75,407.68,222.85,407.6,222.94z M266.64,156.59c-8.08,0.24-14.62,3.02-19.53,9.23c-1.33,1.68-2.39,3.53-2.81,5.66
		c-0.47,2.37,0.87,3.65,3.21,3.14c1.23-0.27,2.28-0.9,3.26-1.69c9.51-7.63,21.59-7.86,30.78-0.19c0.9,0.76,1.88,1.46,3.03,1.83
		c2.23,0.71,3.76-0.47,3.6-2.78c-0.09-1.37-0.68-2.58-1.35-3.73C282.27,160.19,275.12,156.97,266.64,156.59z"/>
	<path class="st1" d="M266.03,258.4c0.47-0.8,1.16-1.19,2.05-1.52c4.73-1.76,9.35-3.77,13.55-6.64c1.06-0.73,2.07-0.74,3.17-0.06
		c4.88,2.97,10.15,5.09,15.57,6.83c0.92,0.29,1.16,0.73,1.16,1.57c-0.02,5.25,0.45,10.54-0.13,15.72
		c-0.75,6.78,0.14,13.56-0.56,20.27c-0.72,6.92,0,13.85-0.59,20.73c-0.58,6.77-0.14,13.55-0.57,20.3
		c-0.47,7.21-0.28,14.43-0.6,21.63c-0.27,5.93-0.33,11.85-0.59,17.77c-0.21,4.95-0.02,9.89-0.27,14.83
		c-0.33,6.52-0.59,13.03-0.57,19.56c-8.35,0.01-16.71,0.01-25.06,0.02c-0.75,0-1.49-0.03-2.11-0.52c0.01-0.27,0.02-0.55,0.03-0.83
		c0.48-0.59,0.46-1.3,0.42-1.98c-0.23-4.29-0.71-8.56-0.66-12.86c0-0.79,0.01-1.57,0.01-2.36c0.11-3.31-0.38-6.61-0.39-9.88
		c-0.04-8.64-0.62-17.26-0.72-25.89c-0.06-5.53,0.23-11.07-0.72-16.55c0-0.25,0-0.51,0-0.76c0.25-4.86,0.1-9.72,0.07-14.58
		c-0.01-0.82-0.15-1.67-0.67-2.37c0.01-2.48,0.03-4.97,0.04-7.45c0.02-3.1,0.05-6.2,0.07-9.31c0-0.71-0.24-1.35-0.62-1.95
		c0.01-3.38,0.01-6.76,0.02-10.14c-0.01-2.87,0.2-5.74-0.3-8.59c-0.68-3.46-0.32-6.94-0.29-10.42c-0.12-2.86,0.37-5.74-0.32-8.58
		C266.38,262.37,265.93,260.4,266.03,258.4z"/>
	<path class="st1" d="M322.77,265.79c1.08-1.05,0.75-2.42,0.69-3.66c-0.07-1.57,0.43-2.19,2.07-2.53
		c7.12-1.48,13.56-4.52,19.24-9.08c1.33-1.07,2.56-1.37,4.19-0.52c3.6,1.86,7.3,3.51,11.17,4.76c-0.06,0.29-0.14,0.57-0.18,0.86
		c-0.8,6.37-1.59,12.74-2.39,19.11c-0.68,5.39-1.4,10.78-2.08,16.17c-0.65,5.14-1.27,10.29-1.91,15.44
		c-0.84,6.72-1.71,13.43-2.53,20.14c-0.65,5.34-1.24,10.7-1.9,16.04c-0.84,6.82-1.75,13.62-2.58,20.44
		c-0.84,6.91-1.6,13.84-2.44,20.75c-1.04,8.48-2.13,16.95-3.19,25.43c-0.53,0.08-1.07,0.23-1.6,0.23c-8.47,0-16.93-0.03-25.4-0.04
		c0-0.19,0-0.39,0-0.58c0.01-0.28,0.01-0.56,0.02-0.84c0.07-0.02,0.13-0.04,0.19-0.07c0.76,0.02,1.06-0.41,1.05-1.1
		c-0.1-3.72,0.11-7.42,0.56-11.11c0-0.9-0.01-1.81-0.01-2.72c0.14-1.4-0.01-2.82,0.29-4.22c0.15-0.73,0.48-1.52,0.02-2.28
		c-0.16-2-0.09-3.99,0.32-5.97c0.36-1.16,0.36-2.36,0.3-3.56c-0.13-2.09-0.14-4.18-0.02-6.27c1.08-1.46,0.49-3.14,0.61-4.72
		c-0.01-1.79-0.01-3.59-0.02-5.38c1.12-1.56,0.47-3.34,0.61-5.01c-0.01-1.7-0.02-3.39-0.02-5.09c1.17-1.48,0.5-3.17,0.53-4.78
		c0-1.04,0-2.09,0-3.13c0.67-2.78,0.92-5.58,0.6-8.43c0-0.56,0-1.11,0-1.67c0.8-3.14,0.75-6.35,0.71-9.55
		c-0.01-0.64-0.04-1.3,0.1-1.92c0.94-4.36,0.2-8.84,1.03-13.21c0.01-0.9,0.02-1.8,0.03-2.71c-0.24-1.89,0.6-3.73,0.28-5.62
		c-0.27-2.11,0.13-4.18,0.32-6.27c0.3-1.36,0.39-2.74,0.31-4.13c-0.18-1.8-0.15-3.6,0.28-5.37c0.55-1.34,0.28-2.75,0.32-4.13
		c-0.14-1.6-0.11-3.19-0.02-4.79c0.99-1.26,0.53-2.73,0.61-4.13C322.84,268.98,322.81,267.39,322.77,265.79z"/>
	<path class="st1" d="M211.14,254.87c0.13-0.92,0.63-1.44,1.55-1.75c2.68-0.89,5.17-2.23,7.65-3.58c0.9-0.49,1.62-0.4,2.45,0.2
		c5.72,4.19,12.06,7.07,18.87,8.96c3.14,0.87,3.05,0.88,3.16,4.07c0.15,4.39,0.38,8.79,0.74,13.15c0.27,3.25,0.09,6.5,0.47,9.72
		c0.84,7.16,0.9,14.36,1.36,21.54c0.28,4.33,0.36,8.69,0.72,13.01c0.45,5.36,0.64,10.74,0.97,16.11c0.28,4.42,0.8,8.84,0.81,13.3
		c0.02,4.04,0.38,8.09,0.71,12.1c0.23,2.75-0.05,5.57,0.5,8.23c0.91,4.45,0.16,8.97,0.96,13.43c0.58,3.23,0.33,6.59,0.58,9.89
		c0.4,5.36,0.85,10.73,1.04,16.11c-8.71,0-17.41,0-26.12,0c-0.09-0.41-0.35-0.71-0.65-0.99c-0.02-0.5-0.04-1-0.06-1.5
		c0.04-1.14,0.5-2.35-0.62-3.26c0.03-0.61,0.06-1.23,0.09-1.84c0.39-1.21,0.1-2.27-0.69-3.23c0.03-0.51,0.07-1.02,0.1-1.53
		c0.49-1.13-0.16-2.15-0.29-3.22c-0.36-0.95-0.34-1.95-0.44-2.93c0.65-0.88-0.21-1.68-0.13-2.55c0.26-2.62-0.64-5.14-0.73-7.75
		c-0.05-1.63-0.48-3.28-0.47-4.96c0-0.76-0.23-1.45-0.74-2.04c0.02-0.27,0.03-0.53,0.05-0.8c0.09-1.33,0.43-2.69-0.53-3.88
		c0.01-0.8,0.02-1.61,0.02-2.41c-0.12-0.99,0.45-2.12-0.62-2.91c0.01-0.91,0.02-1.82,0.03-2.73c-0.02-0.92,0.23-1.91-0.62-2.63
		c0.01-0.91,0.02-1.81,0.03-2.72c-0.02-0.73,0.19-1.54-0.63-2.02c0-1.12,0.01-2.23,0.01-3.35c0.42-0.93-0.18-1.75-0.28-2.63
		c-0.14-1-0.28-2-0.42-2.99c0.25-2.33,0.01-4.67-0.33-6.94c-0.44-2.9-0.61-5.82-0.92-8.73c-0.29-2.67-0.88-5.32-0.8-8.03
		c0.02-0.61-0.15-1.28-0.59-1.79c0.01-0.3,0.01-0.6,0.02-0.9c0.14-1.42,0.31-2.85-0.53-4.15c0.01-0.51,0.02-1.02,0.02-1.53
		c-0.11-1.19,0.42-2.49-0.62-3.51c0.01-1.01,0.02-2.01,0.03-3.02c0.06-1.03-0.02-2.03-0.61-2.93c-0.11-1.1-0.13-2.2,0.01-3.29
		c0.04-0.81,0.03-1.61-0.31-2.36c-0.15-1.17-0.3-2.34-0.45-3.51c0.95-1.01-0.17-1.96-0.07-2.93c0.29-2.93-0.9-5.74-0.65-8.66
		c0.03-0.34-0.03-0.7-0.13-1.02c-0.82-2.67-0.58-5.47-0.9-8.19c-0.34-2.91-0.91-5.86-0.77-8.83c0.03-0.62-0.25-1.15-0.7-1.58
		c0.04-0.8,0.07-1.6,0.11-2.4c0.02-1.03,0.15-2.07-0.61-2.94C211.18,256.46,211.16,255.66,211.14,254.87z"/>
	<path class="st0" d="M186.8,306.02c-0.05-0.48-0.1-0.96-0.15-1.43c0.46-1.2-0.18-2.21-0.52-3.28c-0.02-0.3-0.03-0.59-0.05-0.89
		c0.28-1.79-0.38-3.48-0.57-5.22c-0.39-3.51-0.99-6.99-1.57-10.48c-0.3-1.82-0.25-3.71-1.07-5.42c-0.03-0.28-0.06-0.56-0.09-0.84
		c0.15-1.06,0.23-2.1-0.47-3.03c-0.03-0.28-0.06-0.56-0.1-0.85c0.32-1.17,0.08-2.25-0.51-3.28c-0.03-0.29-0.05-0.58-0.08-0.88
		c0.42-1.28-0.17-2.41-0.55-3.57c-0.01-0.2-0.02-0.39-0.03-0.59c0.44-1.19-0.22-2.2-0.53-3.27c-0.02-0.2-0.03-0.4-0.05-0.6
		c-0.19-2.52-0.25-5.06-1.23-7.44c-0.34-1.45,0.66-0.74,1.05-0.56c1.83,0.85,3.77,1.3,5.71,1.76c0.75,0.46,1.53,0.76,2.41,0.36
		c0.19,0.01,0.38,0.03,0.57,0.04c0.45,0.34,0.98,0.45,1.52,0.52c2.7,0.37,5.41,0.43,8.1,0.06c1.77-0.25,3.67,0.01,5.26-1.12
		c0.29-0.03,0.58-0.07,0.87-0.1c0.78,0.36,1.27-0.17,1.81-0.57c0.68-0.13,1.36-0.27,2.05-0.4c1.7-0.67,1.7-0.67,1.85,0.91
		c-0.29,0.38-0.22,0.69,0.18,0.94c0.11,0.89,0.22,1.78,0.32,2.67c0.02,0.18,0.04,0.36,0.06,0.54c-0.03,0.35-0.07,0.7-0.1,1.04
		c-0.16,0.42-0.12,0.8,0.25,1.1c0.13,0.99,0.25,1.98,0.38,2.97c0.03,0.27,0.07,0.55,0.1,0.82c-0.01,0.4-0.02,0.8-0.04,1.21
		c-0.27,0.38-0.21,0.7,0.21,0.93c0.04,0.18,0.09,0.37,0.13,0.55c-0.09,0.83-0.14,1.65,0.19,2.44c0.05,0.36,0.1,0.73,0.16,1.09
		c-0.04,0.21-0.08,0.42-0.11,0.64c-0.2,0.28-0.13,0.49,0.18,0.64c0.08,0.86,0.16,1.72,0.24,2.59c-0.11,0.34-0.11,0.67,0.13,0.96
		c0.14,1.56,0.28,3.12,0.42,4.69c-0.1,0.54-0.11,1.06,0.2,1.55c0.05,0.69,0.09,1.38,0.14,2.07c-0.16,0.31-0.13,0.61,0.08,0.89
		c0.06,0.48,0.11,0.96,0.17,1.44c-0.11,0.54-0.1,1.06,0.21,1.54c0.06,0.49,0.12,0.98,0.18,1.47c-0.03,0.27-0.06,0.54-0.09,0.81
		c-0.07,0.34-0.06,0.67,0.13,0.98c0.05,0.38,0.1,0.77,0.15,1.15c0.11,1.47,0.22,2.93,0.33,4.4c0.03,0.13,0.06,0.26,0.08,0.39
		c0.06,0.39,0.11,0.77,0.17,1.16c0,0.5,0,1,0,1.5c-0.27,0.38-0.22,0.7,0.18,0.95c0.05,0.66,0.1,1.31,0.15,1.97
		c0.03,0.12,0.05,0.25,0.08,0.37c0.05,0.29,0.11,0.59,0.16,0.88c0.01,0.59,0.02,1.19,0.03,1.78c-0.21,0.28-0.12,0.48,0.16,0.64
		c0.06,0.85,0.12,1.69,0.18,2.54c0.02,0.19,0.04,0.37,0.05,0.56c0.06,0.12,0.12,0.24,0.18,0.36c-0.02,0.46-0.05,0.92-0.07,1.38
		c-0.16,0.42-0.12,0.8,0.25,1.1c0.03,0.53,0.15,1.08,0.06,1.59c-0.09,0.53-0.38,1.03,0.3,1.37c0.05,0.37,0.1,0.74,0.16,1.12
		c-0.04,0.21-0.07,0.42-0.11,0.63c-0.2,0.26-0.14,0.48,0.12,0.65c0.38,1.14-0.11,2.27-0.05,3.41c-0.07,0.44-0.03,0.84,0.47,1.03
		c0.06,0.07,0.13,0.14,0.19,0.21c-0.11,0.25-0.05,0.47,0.12,0.67c-0.01,0.37-0.01,0.75-0.02,1.12c-0.31,0.14-0.26,0.26,0.02,0.38
		c0.04,0.18,0.08,0.36,0.13,0.54c-0.1,0.67-0.2,1.34-0.3,2c-0.04,0.61-0.24,1.26,0.55,1.58c0.36,0.95,0.17,1.96,0.36,2.93
		c-0.1,0.47-0.2,0.94-0.31,1.41c-0.08,0.55-0.09,1.07,0.55,1.31c0.04,0.05,0.05,0.11,0.02,0.18c-0.11,0.55-0.12,1.09,0.15,1.61
		c0.05,0.38,0.1,0.76,0.15,1.14c-0.01,0.49-0.01,0.98-0.02,1.46c-0.07,0.54-0.57,1.16,0.26,1.55c0.01,0.18,0.03,0.35,0.04,0.53
		c-0.07,0.43-0.08,0.86,0.15,1.25c0.05,0.29,0.09,0.57,0.14,0.86c-0.21,0.91,0.18,1.77,0.21,2.67c-0.28,0.15-0.18,0.25,0.05,0.34
		c0.02,0.27,0.04,0.54,0.06,0.81c0.03,0.22,0.06,0.44,0.1,0.66c0.05,0.29,0.1,0.58,0.14,0.88c0,0.5,0.01,0.99,0.01,1.49
		c-0.25,0.36-0.23,0.68,0.15,0.94c0.07,0.74,0.14,1.49,0.21,2.23c0.03,0.23,0.07,0.46,0.1,0.7c0.04,0.09,0.08,0.19,0.12,0.28
		c0.01,0.49,0.02,0.99,0.03,1.48c-0.3,0.57-0.45,1.11,0.24,1.52c0.08,0.52,0.17,1.05,0.25,1.57c0.04,0.35,0.07,0.7,0.11,1.05
		c-0.2,0.82,0.13,1.6,0.18,2.4c-0.23,0.14-0.11,0.24,0.04,0.33c-0.04,0.71-0.51,1.48,0.28,2.08c0.03,0.28,0.07,0.55,0.1,0.83
		c-0.18,0.71,0.11,1.39,0.13,2.09c-0.23,0.15-0.14,0.26,0.04,0.36c0.09,0.75,0.17,1.51-0.15,2.24c-0.07,0.44-0.03,0.84,0.47,1.02
		c0.08,0.17,0.15,0.33,0.23,0.5c-0.02,0.38-0.03,0.76-0.05,1.14c-0.14,0.28-0.28,0.56,0.13,0.74c0.05,0.37,0.1,0.74,0.16,1.11
		c-0.21,0.35-0.39,0.71-0.34,1.14c-0.06,0.53-0.12,1.05,0.53,1.29c0.11,0.78,0.23,1.56,0.34,2.35c-0.23,0.54,0.21,1.19-0.27,1.69
		c-0.08,0.54-0.08,1.06,0.55,1.3c0.02,0.15,0.03,0.3,0.05,0.45c0.03,0.15,0.05,0.3,0.08,0.45c0.07,0.58,0.13,1.16,0.2,1.74
		c-0.1,0.44-0.09,0.86,0.22,1.23c0.05,0.39,0.11,0.78,0.16,1.17c-0.04,0.18-0.07,0.37-0.11,0.55c-0.06,0.33-0.04,0.65,0.14,0.95
		c0.05,0.29,0.1,0.57,0.15,0.86c-0.19,0.86,0.15,1.68,0.16,2.52l-0.09,0.02l0.09-0.01c0.05,0.33,0.1,0.66,0.15,0.98
		c-0.07,0.34-0.07,0.67,0.11,0.97c0.05,0.19,0.09,0.38,0.14,0.57c0.01,0.5,0.02,0.99,0.03,1.49c-0.31,0.49-0.32,0.91,0.25,1.22
		c0.08,0.53,0.17,1.05,0.25,1.58c0.03,0.25,0.05,0.51,0.08,0.76c-0.01,0.4-0.03,0.8-0.04,1.2c-0.24,0.38-0.18,0.7,0.21,0.94
		c0.11,0.76,0.22,1.53,0.34,2.29c0.04,0.29,0.07,0.58,0.11,0.86c-0.04,0.27-0.09,0.53-0.13,0.8c-0.17,0.53-0.17,1.01,0.31,1.39
		c0.02,0.18,0.03,0.35,0.05,0.53c-1.47,0.29-3-0.24-4.44,0.36c-0.4,0.02-0.8,0.05-1.2,0.07c-0.18-0.01-0.37-0.03-0.55-0.04
		c-0.11-0.01-0.22-0.02-0.33-0.03c-0.09-0.03-0.17-0.06-0.26-0.1c-2.34-0.97-4.81-1.53-7.21-2.29c-0.08,0.01-0.14-0.01-0.19-0.07
		c-1-1.15-2.37-1.7-3.72-2.29c-0.15-0.12-0.31-0.24-0.46-0.35c-0.16-0.53-0.52-0.79-1.07-0.8c-1.23-1.13-2.36-2.35-3.38-3.68
		c0-0.42-0.16-0.72-0.58-0.86l-0.02-0.03c-0.2-1.06-0.68-1.94-1.53-2.62c0,0,0,0.01,0,0.01c-0.06-0.11-0.12-0.22-0.18-0.33
		c-0.45-0.98-0.9-1.96-1.34-2.95c0.2-1.04-0.56-1.84-0.7-2.82c-0.36-2.63-0.88-5.23-1.33-7.85c-0.01-0.33-0.01-0.67-0.02-1
		c-0.02-0.22-0.04-0.44-0.06-0.66c0.11-0.61,0.17-1.21-0.37-1.68c-0.03-0.28-0.06-0.57-0.09-0.85c0.37-1.18,0.14-2.26-0.51-3.28
		c-0.03-0.39-0.05-0.78-0.08-1.16c0.47-1.19-0.19-2.21-0.51-3.28c-0.02-0.2-0.03-0.39-0.05-0.59c0.42-1.28-0.22-2.4-0.54-3.56
		c-0.02-0.2-0.04-0.4-0.05-0.59c0.44-1.12-0.2-2.03-0.6-2.98c-0.31-2.19-0.62-4.38-0.93-6.58c-0.01-0.83,0.1-1.68-0.06-2.48
		c-0.35-1.74-0.21-3.58-1.07-5.21c-0.02-0.19-0.04-0.37-0.05-0.56c0.24-0.43,0.2-0.83-0.09-1.22c-0.01-0.14-0.03-0.27-0.04-0.41
		c0.1-0.61,0.17-1.21-0.37-1.68c-0.03-0.28-0.06-0.56-0.09-0.84c0.36-1.37-0.08-2.63-0.56-3.88c-0.01-0.19-0.03-0.38-0.04-0.57
		c-0.31-3.71-0.51-7.44-1.76-11.01c-0.04-0.74-0.08-1.47-0.12-2.21c-0.06-0.16-0.12-0.32-0.17-0.48c0,0-0.04-0.03-0.04-0.03
		c0-3.01-0.41-5.97-1.25-8.87c-0.03-0.33-0.05-0.67-0.08-1c0.11-0.62,0.2-1.23-0.38-1.69c-0.03-0.28-0.06-0.56-0.08-0.84
		c0.21-0.33,0.17-0.64-0.07-0.93c-0.02-0.23-0.04-0.46-0.06-0.69c0.1-0.62,0.17-1.22-0.38-1.69c-0.02-0.28-0.05-0.56-0.07-0.84
		C187.57,307.76,187.42,306.85,186.8,306.02z"/>
	<path class="st0" d="M340.92,409.15c1.07-8.48,2.16-16.95,3.19-25.43c0.85-6.91,1.6-13.83,2.44-20.75
		c0.83-6.82,1.74-13.62,2.58-20.44c0.66-5.34,1.24-10.7,1.9-16.04c0.82-6.72,1.69-13.43,2.53-20.14c0.64-5.15,1.26-10.29,1.91-15.44
		c0.68-5.39,1.4-10.78,2.08-16.17c0.81-6.37,1.59-12.74,2.39-19.11c0.04-0.29,0.12-0.58,0.18-0.86c9.38,3.07,18.72,3.1,28.01-0.38
		c0.88-0.33,1.36-0.36,1.15,0.93c-1.74,10.78-3.43,21.57-5.1,32.36c-1.21,7.81-2.36,15.63-3.57,23.44
		c-1.21,7.76-2.49,15.51-3.69,23.27c-1.23,7.96-2.38,15.93-3.6,23.89c-1.2,7.81-2.52,15.6-3.66,23.42
		c-0.51,3.52-1.28,6.98-1.83,10.49c-0.14,0.35-0.27,0.7-0.41,1.05c-0.06,0.23-0.13,0.46-0.19,0.69c-0.25,0.53-0.5,1.07-0.76,1.6
		c-3.67,7.44-9.68,11.85-17.73,13.42C346.17,409.43,343.53,409.63,340.92,409.15z"/>
	<path class="st2" d="M340.92,409.15c2.62,0.49,5.26,0.29,7.8-0.21c8.06-1.58,14.07-5.99,17.73-13.42c0.26-0.53,0.51-1.06,0.76-1.6
		c0.06-0.23,0.13-0.46,0.19-0.69c0.14-0.35,0.27-0.7,0.41-1.05c1.23,2.17,3.59,1.8,5.47,2.2c4.94,1.04,9.77,2.44,14.51,4.12
		c3.52,1.25,7.07,2.53,9.98,5.07c2.65,2.31,2.78,4.6,0.36,7.07c-1.56,1.59-3.49,2.62-5.52,3.41c-8.13,3.16-16.6,5-25.19,6.38
		c-3.95,0.63-7.88,1.4-11.84,1.91c-4.4,0.56-8.83,0.91-13.26,1.32c-3.83,0.35-7.67,0.67-11.51,1c-2.02,0.17-4.03,0.4-6.05,0.47
		c-8.74,0.31-17.47,0.8-26.21,1.01c-10.34,0.25-20.68,0.22-31.01,0.11c-5.77-0.06-11.56-0.18-17.33-0.54
		c-6.9-0.44-13.8-0.83-20.69-1.34c-6.99-0.51-13.97-1.18-20.93-1.98c-5.88-0.68-11.75-1.61-17.54-2.88
		c-5.2-1.15-10.39-2.38-15.39-4.23c-2.59-0.96-5.12-2.13-7.31-3.89c-0.8-0.65-1.54-1.33-2-2.33c-0.86-1.86-0.34-3.27,1-4.67
		c2.95-3.08,6.75-4.58,10.63-5.95c6.03-2.12,12.23-3.51,18.52-4.57c1.15-0.19,2.25-0.71,3.38-1.08c0.45,0.98,0.9,1.96,1.34,2.95
		c0.06,0.11,0.12,0.22,0.18,0.33c0,0,0-0.01,0-0.01c0.34,0.97,0.81,1.87,1.53,2.62c0,0,0.02,0.03,0.02,0.03
		c0.19,0.29,0.38,0.57,0.58,0.86c1.01,1.33,2.14,2.55,3.38,3.68c0.31,0.33,0.57,0.73,1.07,0.8c0.15,0.12,0.31,0.24,0.46,0.35
		c1.08,1.02,2.34,1.76,3.72,2.29c0.05,0.06,0.12,0.08,0.19,0.07c2.24,1.3,4.65,2.04,7.21,2.29c0.08,0.04,0.17,0.07,0.26,0.1
		c0.11,0.01,0.22,0.02,0.33,0.03c0.18,0.01,0.37,0.03,0.55,0.04c1.53,0.81,3.12,0.62,4.71,0.25c0.31-0.04,0.61-0.07,0.92-0.11
		c0.1,0.01,0.21,0.02,0.31,0.02c0.31,0,0.62,0.01,0.92,0.01c8.71,0,17.41,0,26.12,0c0.23-0.02,0.46-0.05,0.69-0.07
		c0.1-0.01,0.2-0.02,0.31-0.03c0.24,0.05,0.48,0.15,0.72,0.15c4.49,0.01,8.99,0.01,13.48,0.01c0.41,0,0.78-0.07,1.11-0.32
		c0.15-0.08,0.31-0.17,0.46-0.25c0.62,0.5,1.36,0.53,2.11,0.53c8.35-0.01,16.71-0.01,25.06-0.02c0.34-0.02,0.68-0.04,1.02-0.06
		c5.08,0.19,10.17,0.16,15.25,0.02c8.47,0.02,16.93,0.04,25.4,0.04C339.85,409.38,340.38,409.23,340.92,409.15z"/>
	<path class="st0" d="M250.45,342.27c-0.01-0.18-0.02-0.37-0.04-0.55c-0.2-3.18-0.39-6.36-0.59-9.53c-0.02-0.18-0.04-0.37-0.06-0.55
		c-0.18-2.88-0.11-5.78-0.55-8.65c-0.02-0.28-0.04-0.57-0.06-0.85c-0.11-3.18-0.06-6.38-0.54-9.54c-0.05-0.58-0.1-1.15-0.15-1.73
		c0.2-0.53,0.12-1.04-0.09-1.55c-0.02-0.39-0.03-0.77-0.05-1.16c0.11-0.8,0.11-1.61-0.07-2.4c-0.01-0.28-0.02-0.56-0.03-0.84
		c0.12-0.54,0.13-1.07-0.13-1.58c-0.12-1.86-0.24-3.72-0.35-5.58c0-0.11-0.01-0.22-0.01-0.34c-0.02-0.77-0.05-1.54-0.07-2.31
		c0.12-0.73,0.19-1.45-0.16-2.14c-0.07-1.58-0.14-3.15-0.21-4.73c0.22-0.41,0.2-0.81-0.05-1.21c-0.05-0.67-0.1-1.35-0.15-2.02
		c0.1-0.92,0.21-1.85-0.19-2.73c-0.06-0.69-0.12-1.37-0.18-2.06c0.03-0.47,0.07-0.94,0.1-1.41c0.09-0.53,0.11-1.06-0.14-1.56
		c-0.06-0.78-0.11-1.55-0.17-2.33c0-0.79,0.01-1.59,0.01-2.38c0.28-0.38,0.31-0.73-0.17-0.98c-0.07-0.22-0.14-0.44-0.22-0.66
		c0.31-0.62,0.01-1.27,0.09-1.9c0.06-0.82,0.17-1.64-0.13-2.43c-0.05-0.68-0.11-1.36-0.16-2.04c0.02-0.7,0.04-1.4,0.06-2.1
		c0.25-0.47,0.34-0.91-0.19-1.26c-0.08-0.22-0.15-0.44-0.23-0.66c0.01-0.16,0.02-0.32,0.03-0.48c0.06-0.06,0.09-0.12,0.11-0.2
		c0.29-0.02,0.58-0.05,0.87-0.07c0.1,0.04,0.2,0.09,0.29,0.13c2.97,0.39,5.94,0.34,8.91-0.01c0.3-0.02,0.59-0.04,0.89-0.05
		c1.08,0.49,2-0.25,3.01-0.38c0.08,0,0.16-0.01,0.23-0.03c1.27,0.07,2.35-0.6,3.53-0.89c2.02-0.49,2.05-0.5,2.11,1.59
		c0.42,16.04,0.86,32.07,1.29,48.1c0.01,0.39,0.11,0.77,0.17,1.16c-0.09,1.05-0.07,2.1,0.11,3.15c-0.37,1.2,0.08,2.42-0.05,3.63
		c-0.36,0.74-0.43,1.45,0.13,2.13c0.09,2.16,0.17,4.33,0.26,6.49c0,0.29,0.01,0.58,0.01,0.87c0,0.3,0.01,0.6,0.01,0.91
		c0,0.18,0.01,0.36,0.01,0.55c-0.12,1.12-0.18,2.25,0.11,3.36c-0.06,1.66-0.04,3.31,0.2,4.96c-0.04,0.51-0.09,1.01-0.13,1.52
		c-0.34,0.74-0.47,1.46,0.16,2.12c0.06,1.86,0.13,3.72,0.19,5.59c0.01,0.31,0.01,0.61,0.02,0.92c0,0.28,0.01,0.56,0.01,0.84
		c-0.11,1.62-0.21,3.24,0.16,4.84c0.05,2.54,0.1,5.08,0.15,7.63c-0.42,0.44-0.41,0.87,0.04,1.28c0.07,2.35,0.15,4.7,0.22,7.05
		c-0.24,1.59,0.04,3.17-0.03,4.76c-0.32,0.55-0.4,1.07,0.12,1.55c0.11,1.53,0.23,3.06,0.34,4.58c-0.05,0.22-0.11,0.44-0.16,0.66
		c-0.07,1.12-0.21,2.24,0.15,3.34c0.05,1.17,0.1,2.35,0.15,3.52c-0.01,1.39-0.01,2.78-0.02,4.16c-0.35,0.74-0.45,1.46,0.12,2.14
		c0.09,0.48,0.17,0.97,0.26,1.45c0.02,0.34,0.04,0.68,0.06,1.02c-0.33,1.2,0,2.43-0.1,3.64c-0.09,1.22-0.24,2.44,0.12,3.65
		c0.04,0.78,0.09,1.56,0.13,2.34c-0.01,1.39-0.02,2.78-0.03,4.17c-0.35,0.47-0.83,0.66-1.42,0.66c-4.55-0.03-9.1-0.06-13.65-0.09
		c-0.04-1.24-0.09-2.48-0.13-3.73c-0.02-0.28-0.03-0.57-0.05-0.85c-0.12-0.52-0.23-1.05-0.35-1.57c0.06-0.21,0.12-0.42,0.18-0.64
		c0.29-0.56,0.31-1.08-0.19-1.53c-0.21-1.31,0.05-2.66-0.34-3.96c-0.05-1.03-0.1-2.06-0.15-3.08c0.44-0.56,0.41-1.09-0.14-1.56
		c-0.05-0.28-0.09-0.56-0.14-0.84c0.08-1.41,0.16-2.83-0.21-4.22c-0.05-0.96-0.1-1.92-0.15-2.88c0.4-0.36,0.33-0.68-0.08-0.98
		c-0.08-1.36-0.16-2.71-0.24-4.07c0.12-0.53,0.16-1.06-0.13-1.56c-0.04-0.87-0.08-1.73-0.12-2.6c0.28-0.25,0.26-0.48-0.04-0.69
		c-0.08-1.26-0.17-2.52-0.25-3.78c0.11-0.82,0.18-1.65-0.19-2.43c-0.07-0.73-0.14-1.47-0.21-2.2c0.05-0.33,0.1-0.67,0.15-1
		c0.06-0.82,0.15-1.64-0.18-2.43c-0.05-0.48-0.1-0.96-0.14-1.44c0.1-0.83,0.18-1.65-0.23-2.43c-0.05-0.43-0.1-0.87-0.16-1.3
		c0.22-1.37,0.07-2.72-0.13-4.08c-0.03-0.66-0.05-1.33-0.08-1.99C250.81,348.04,250.63,345.16,250.45,342.27z"/>
	<path class="st0" d="M313.93,407.91c-0.01,0.28-0.01,0.56-0.02,0.84c-5.06,0.16-10.11,0.15-15.17,0.01c0-1.47,0-2.94,0-4.41
		c0.18-1.99,0.22-3.97,0.09-5.96c0.04-0.28,0.08-0.56,0.11-0.84c0.72-1.09,0.62-2.21,0.12-3.35c0.05-2.54,0.09-5.08,0.14-7.63
		c0.18-0.42,0.18-0.85,0.03-1.29c0.01-0.29,0.01-0.57,0.02-0.86c0.17-0.49,0.16-0.98,0.03-1.47c0.01-0.3,0.01-0.59,0.02-0.89
		c0.2-2.77,0.26-5.54,0.13-8.32c0,0,0.1,0.04,0.1,0.04c0.69-0.89,0.61-1.81,0.12-2.76c0.09-2.5,0.19-5.01,0.28-7.51
		c0.01-0.48,0.02-0.96,0.04-1.44c0.06-3.32,0.13-6.64,0.19-9.97c0.65-0.87,0.5-1.79,0.17-2.72c-0.05-0.41-0.11-0.81-0.16-1.22
		c0.12-2.4,0.24-4.81,0.36-7.21c0.01-0.48,0.02-0.97,0.03-1.45c0.06-2.83,0.11-5.66,0.17-8.49c0.71-0.96,0.53-1.98,0.17-3
		c-0.03-0.8-0.06-1.61-0.1-2.41c0.08-1.67,0.16-3.34,0.24-5.01c0.36-1.5,0.2-3.02,0.12-4.53c0.06-1.94,0.13-3.89,0.19-5.83
		c0.66-0.87,0.49-1.79,0.14-2.71c-0.03-0.8-0.05-1.6-0.08-2.4c0.07-2.26,0.15-4.53,0.22-6.79c0.2-2.38,0.52-4.75,0.18-7.14
		c0.03-0.68,0.05-1.35,0.08-2.03c0.83-1.37,0.54-2.79,0.21-4.22c0.04-2.27,0.07-4.53,0.11-6.8c0.39-1.59,0.22-3.2,0.17-4.8
		c-0.05-0.43-0.1-0.86-0.16-1.29c0.12-1.42,0.23-2.84,0.35-4.26c0.24-0.19,0.26-0.42,0.09-0.67c-0.04-0.5-0.08-1-0.12-1.5
		c0.06-2.11,0.12-4.21,0.19-6.32c0.02-0.62-0.12-1.36,0.9-1.31c1.43,0.98,3.16,0.95,4.74,1.39c1.33-0.15,2.49,0.69,3.8,0.64
		c1.41,0.01,2.74,0.86,4.2,0.37c0.59,0.02,1.18,0.03,1.78,0.05c1.39,0.38,2.8,0.12,4.2,0.18c0.1,0.12,0.21,0.25,0.31,0.37
		c-0.04,0.36-0.08,0.71-0.12,1.07c-0.42,1.86-0.09,3.77-0.4,5.64c-0.27,0.18-0.32,0.4-0.1,0.66c0,0.8-0.01,1.59-0.01,2.39
		c-0.06,0.19-0.11,0.39-0.17,0.58c-0.03,0.23-0.05,0.45-0.08,0.68c-0.04,1.34-0.03,2.67-0.12,4c-0.49,7.45-1.02,14.9-1.48,22.35
		c-0.11,1.82-0.27,3.65-0.09,5.48c-0.02,0.33-0.03,0.67-0.05,1c-0.08,0.29-0.17,0.58-0.25,0.87c-0.28,0.19-0.31,0.41-0.09,0.66
		c0,0.89-0.01,1.79-0.01,2.68c-0.05,0.48-0.1,0.96-0.15,1.45c-0.31,0.7-0.23,1.43-0.15,2.15c0.05,0.43,0.09,0.85,0.14,1.28
		c-0.09,0.53-0.19,1.06-0.28,1.59c-0.33,0.16-0.35,0.39-0.15,0.67c0,0.99,0.01,1.98,0.01,2.97c-0.01,0.28-0.03,0.56-0.04,0.83
		c0,0.11-0.01,0.22-0.01,0.34c-0.05,0.67-0.11,1.34-0.16,2.01c-0.3,0.21-0.34,0.44-0.04,0.69c-0.05,0.97-0.09,1.93-0.14,2.9
		c-0.36,0.99-0.29,2.01-0.17,3.03c-0.04,1.08-0.07,2.15-0.11,3.23c-0.07,0.07-0.12,0.15-0.16,0.25c-0.32,0.29-0.36,0.61-0.08,0.95
		c0.05,0.28,0.09,0.56,0.14,0.83c-0.2,0.68-0.25,1.37-0.2,2.08c-0.3,0.71-0.26,1.44-0.15,2.17c-0.07,1.16-0.15,2.32-0.22,3.48
		c-0.56,0.44-0.5,0.97-0.2,1.52c0.02,0.62,0.05,1.23,0.07,1.85c-0.03,0.47-0.07,0.95-0.1,1.42c-0.72,0.41-0.58,1.13-0.44,1.68
		c0.2,0.82,0.17,1.62,0.11,2.43c-0.24,0.11-0.27,0.23-0.01,0.37c-0.02,0.27-0.03,0.55-0.05,0.82c-0.52,0.45-0.48,0.97-0.18,1.52
		c0.01,0.7,0.02,1.4,0.03,2.1c-0.07,0.23-0.14,0.47-0.21,0.7c-0.02,0.38-0.03,0.77-0.05,1.15c0.09,1.05-0.46,2.09-0.1,3.15
		c-0.39,0.2-0.46,0.41-0.03,0.65c-0.02,0.37-0.04,0.74-0.06,1.12c-0.52,0.47-0.48,0.99-0.16,1.54c0,0.7,0.01,1.39,0.01,2.09
		c-0.07,0.43-0.15,0.86-0.22,1.3c-0.01,0.48-0.03,0.96-0.04,1.44c-0.02,0.76-0.04,1.52-0.07,2.29c-0.34,0.19-0.43,0.38-0.04,0.61
		c-0.02,0.28-0.04,0.56-0.06,0.84c-0.54,0.45-0.49,0.97-0.19,1.53c0,0.99,0,1.99,0,2.98c-0.04,0.39-0.09,0.78-0.13,1.17
		c-0.24,0.51-0.2,1.04-0.11,1.57c-0.02,0.56-0.04,1.12-0.06,1.68c-1.04,0.91-0.43,1.97-0.29,2.99c0.01,0.8,0.02,1.6,0.02,2.39
		c-0.05,0.68-0.11,1.36-0.16,2.05c-0.27,0.6-0.21,1.22-0.13,1.85c-0.06,0.76-0.12,1.51-0.18,2.27c-0.51,0.48-0.46,1-0.13,1.55
		c0,0.8,0.01,1.59,0.01,2.39c-0.05,0.68-0.1,1.36-0.15,2.04C313.91,401.94,313.46,404.89,313.93,407.91z"/>
	<path class="st2" d="M353.31,237.82c1.75,0.88,3.2,2.29,5.07,2.95c0.16,0.07,0.33,0.13,0.49,0.2c0.12,0.06,0.23,0.12,0.35,0.17
		c0.14,0.2,0.33,0.26,0.56,0.23c1.21,0.75,2.56,1.16,3.93,1.51c0.17,0.05,0.33,0.09,0.5,0.14c0.54,0.15,1.08,0.3,1.62,0.45
		c0.33,0.21,0.68,0.24,1.06,0.16c0.57,0.13,1.14,0.25,1.72,0.38c0.59,0.27,1.21,0.25,1.83,0.18c0.38,0.03,0.76,0.06,1.14,0.09
		c0.5,0.28,1.03,0.31,1.56,0.11c0.76,0.16,1.52,0.17,2.28-0.01c0.44,0.22,0.86,0.17,1.26-0.08c0.58-0.04,1.16-0.08,1.74-0.12
		c0.52,0.06,1.04,0.16,1.5-0.2c1.38-0.28,2.84-0.15,4.11-0.89c0.44,0.04,0.87,0.03,1.21-0.3c3.1-0.89,5.92-2.39,8.63-4.1
		c0.16-0.09,0.31-0.18,0.47-0.27c0.14-0.1,0.29-0.2,0.43-0.3c0.15-0.11,0.29-0.22,0.44-0.33c3.84-2.48,6.74-5.87,9.38-9.52
		c0.88-1.22,1.87-2.39,2.36-3.85c0.84,0.39,0.47,1.11,0.22,1.52c-1.46,2.37-2.24,5.03-3.31,7.56c-0.84,1.96-2.72,3.13-4.36,4.35
		c-0.75,0.56-1.5,1.07-2.06,1.82c-1.4,1.87-3.31,3.07-5.28,4.21c-0.39,0.22-0.82,0.4-0.91,0.9c-0.27,1.47-1.36,1.64-2.59,1.95
		c-1.71,0.43-3.55,0.16-5.16,1.32c-1.05,0.75-2.6,0.84-3.88,0.65c-3.65-0.56-7.36-0.82-10.86-2.15c-1.84-0.7-3.19-2.27-5.19-2.76
		c-3.34-0.82-6.36-2.4-9.19-4.34C353.8,239.04,353.21,238.66,353.31,237.82z"/>
	<path class="st2" d="M287.82,235.86c0.03,0.12,0.06,0.25,0.1,0.37c-1.06,0.08-1.65-0.68-2.16-1.37c-0.83-1.11-1.57-0.87-2.23,0.02
		c-0.97,1.31-2.34,2.39-3.08,3.76c-1.61,2.98-4.44,4.35-7.02,6.09c-1.39,0.94-2.93,1.67-4,3c-0.96,1.2-2.4,1.31-3.66,1.79
		c-2.91,1.12-6,1.02-9.05,1.14c-4.84,0.18-9.29-1.47-13.72-3.12c-1.99-0.74-4.03-1.35-5.85-2.48c-0.41-0.25-1-0.36-0.6-1.06
		c2.4,0.87,4.7,2,7.22,2.6c5.78,1.39,11.52,1.45,17.28-0.02c8.05-2.04,14.58-6.35,19.48-13.07c0.75-1.03,1.38-2.15,2.04-3.25
		c0.18-0.3,0.3-0.67,0.72-0.62c0.35,0.04,0.37,0.42,0.5,0.67c0.99,1.85,2.2,3.55,3.6,5.11
		C287.53,235.57,287.68,235.72,287.82,235.86z"/>
	<path class="st2" d="M216.01,235.36c0.69-0.58,1.37-1.16,2.06-1.73c0.35-0.08,0.57-0.26,0.56-0.65c0,0,0,0,0,0
		c0.39-0.01,0.59-0.2,0.6-0.59c0,0,0,0,0,0c0.38,0.01,0.56-0.21,0.62-0.56c0.4-0.43,0.88-0.81,1.17-1.31
		c0.73-1.26,1.27-1.03,1.79,0.12c0.73,1.62,2.01,2.87,2.92,4.37c-0.54,0.09-0.99-0.06-1.29-0.52c-0.75-1.17-1.39-0.63-2.11,0.07
		c-2.92,2.88-6.29,5.2-9.8,7.28c-1.06,0.63-2.01,1.39-3.07,2.02c-3.09,1.83-6.52,1.79-9.88,2c-2.7,0.17-5.44-0.07-8.08-0.71
		c-1.89-0.47-3.8-0.93-5.59-1.81c-2.34-1.15-4.96-1.65-7.31-2.82c-0.72-0.36-1.48-0.64-1.47-1.64c3.09,1.3,6.19,2.54,9.5,3.22
		c8.3,1.71,16.18,0.61,23.73-3.18c1.86-0.93,3.56-2.1,5.31-3.21C215.78,235.57,215.89,235.46,216.01,235.36z"/>
	<path class="st2" d="M300.12,244.88c0.17,0.1,0.33,0.21,0.5,0.31c0.16,0.06,0.32,0.11,0.48,0.17c0.42,0.17,0.84,0.33,1.26,0.5
		c0.16,0.05,0.33,0.09,0.49,0.14c0.52,0.16,1.04,0.33,1.57,0.49c0.22,0.29,0.5,0.4,0.85,0.3c0.13,0.04,0.25,0.09,0.38,0.13
		c0.41,0.29,0.86,0.38,1.36,0.27c0.35,0.1,0.69,0.2,1.04,0.3c0.12,0.02,0.25,0.04,0.37,0.05c1.47,0.17,2.94,0.46,4.41,0.5
		c11.44,0.38,20.98-3.66,28.42-12.42c1.3-1.53,2.49-3.19,3.3-5.06c0.41-0.95,0.83-1.36,1.61-0.29c0.8,1.1,1.65,2.17,2.48,3.25
		c-2.05-1.2-2.68,0.29-3.53,1.72c-1.44,2.42-3.02,4.89-5.23,6.56c-1.88,1.42-3.55,3.29-5.9,4.06c-0.45,0.15-0.72,0.49-1.01,0.83
		c-0.46,0.52-0.9,1.34-1.45,1.43c-2.43,0.39-4.32,2.24-6.78,2.4c-2.6,0.17-5.22,0.4-7.81,0.24c-2.79-0.17-5.59-0.77-8.21-1.7
		c-2.19-0.77-4.39-1.51-6.57-2.31c-1.19-0.44-2.41-0.86-3.29-1.84c0.04-0.04,0.08-0.09,0.12-0.13
		C299.35,244.8,299.74,244.84,300.12,244.88z"/>
	<path class="st3" d="M267.02,309.37c-0.06-0.39-0.16-0.77-0.17-1.16c-0.44-16.03-0.87-32.07-1.29-48.1
		c-0.06-2.1-0.09-2.08-2.11-1.59c-1.18,0.29-2.27,0.96-3.53,0.89c0.09-0.33,0.14-0.85,0.49-0.84c1.72,0.06,3.29-0.87,5.01-0.75
		c0.34,0.02,0.48,0.31,0.61,0.58c-0.1,2.01,0.35,3.97,0.41,5.97c-0.81,0.57-0.54,1.42-0.5,2.15c0.14,2.16-0.19,4.38,0.81,6.43
		c-0.03,3.48-0.39,6.96,0.29,10.42c-0.31,0.19-0.53,0.47-0.52,0.84c0.1,2.35,0.2,4.7,0.34,7.05c0.01,0.24,0.31,0.47,0.48,0.7
		c-0.01,3.38-0.01,6.76-0.02,10.14c-0.47,1.45-0.2,2.93-0.11,4.4C267.28,307.46,267.59,308.44,267.02,309.37z"/>
	<path class="st4" d="M298.74,408.76c5.06,0.14,10.11,0.15,15.17-0.01c0,0.19,0,0.39,0,0.58c-5.08,0.14-10.17,0.18-15.25-0.02
		C298.69,409.13,298.72,408.95,298.74,408.76z"/>
	<path class="st4" d="M182.86,279.3c0.82,1.72,0.77,3.61,1.07,5.42c0.58,3.48,1.18,6.97,1.57,10.48c0.19,1.74,0.86,3.43,0.57,5.22
		c-0.75-1.7-0.67-3.57-0.97-5.35c-0.86-5.09-1.53-10.21-2.27-15.32C182.81,279.59,182.85,279.44,182.86,279.3z"/>
	<path class="st4" d="M203.84,256.03c-1.59,1.13-3.49,0.87-5.26,1.12c-2.69,0.37-5.4,0.31-8.1-0.06c-0.54-0.07-1.07-0.18-1.52-0.52
		c1.3-0.13,2.55,0.29,3.83,0.38C196.52,257.2,200.18,256.58,203.84,256.03z"/>
	<path class="st2" d="M229.37,239c0.66,0.36,1.21,0.84,1.69,1.42c0.13,0.1,0.26,0.21,0.39,0.31c1.48,0.97,2.95,1.94,4.43,2.9
		c-0.23,0.72-0.68,0.58-1.14,0.26c-1.56-1.08-3.14-2.15-4.67-3.28C229.6,240.25,229.09,239.76,229.37,239z"/>
	<path class="st2" d="M170.25,234.52c2.23,1.39,4.31,3.01,6.65,4.22c-0.38,0.42-0.84,0.56-1.32,0.24c-1.87-1.26-3.73-2.54-5.57-3.84
		c-0.18-0.12-0.24-0.42-0.35-0.63c0,0,0.03-0.02,0.03-0.02C169.88,234.5,170.07,234.51,170.25,234.52z"/>
	<path class="st4" d="M189.94,328.02c1.25,3.56,1.44,7.29,1.76,11.01C190.79,335.41,190.56,331.68,189.94,328.02z"/>
	<path class="st3" d="M322.13,267.71c0.31-1.87-0.02-3.78,0.4-5.64c0.59,1.21-0.29,2.51,0.24,3.72c0.03,1.59,0.07,3.19,0.11,4.78
		c-0.29,0.06-0.57,0.12-0.86,0.18c0-0.8,0.01-1.59,0.01-2.39C322.06,268.15,322.1,267.93,322.13,267.71z"/>
	<path class="st3" d="M210.9,259.47c-0.11-0.89-0.22-1.78-0.32-2.67c0.07-0.34,0.04-0.66-0.18-0.94c-0.14-1.58-0.14-1.58-1.85-0.91
		c0.59-1.28,1.46-1.31,2.58-0.09c0.02,0.8,0.05,1.59,0.07,2.39C210.71,257.94,211.3,258.77,210.9,259.47z"/>
	<path class="st3" d="M308.38,259.39c-1.59-0.44-3.31-0.41-4.74-1.39c1.58-0.65,2.87,0.69,4.38,0.64
		C308.27,258.63,308.32,259.09,308.38,259.39z"/>
	<path class="st3" d="M248.63,312.59c0.47,3.16,0.43,6.36,0.54,9.54c-0.07-0.07-0.19-0.13-0.2-0.2
		C248.59,318.82,248.52,315.71,248.63,312.59z"/>
	<path class="st4" d="M188.36,316.43c0.84,2.9,1.25,5.86,1.25,8.87C189.14,322.35,188.51,319.43,188.36,316.43z"/>
	<path class="st3" d="M249.83,332.18c0.2,3.18,0.39,6.36,0.59,9.53c-0.39-0.23-0.49-0.6-0.5-1.01c-0.09-2.66,0.02-5.32-0.28-7.98
		C249.62,332.56,249.76,332.37,249.83,332.18z"/>
	<path class="st4" d="M179.22,254.96c0.98,2.39,1.04,4.93,1.23,7.44C179.69,259.98,179.59,257.45,179.22,254.96z"/>
	<path class="st3" d="M249.23,322.98c0.43,2.87,0.37,5.77,0.55,8.65c-0.1-0.11-0.28-0.2-0.29-0.32
		C249.24,328.54,249.09,325.77,249.23,322.98z"/>
	<path class="st3" d="M250.45,342.27c0.18,2.89,0.36,5.77,0.54,8.66c-0.14-0.19-0.39-0.38-0.4-0.58
		C250.46,347.65,250.3,344.96,250.45,342.27z"/>
	<path class="st4" d="M192.94,348.19c0.85,1.63,0.72,3.48,1.07,5.21c0.16,0.8,0.05,1.65,0.06,2.48
		C193.69,353.32,193.31,350.76,192.94,348.19z"/>
	<path class="st3" d="M300.17,352.13c-0.06,3.32-0.13,6.64-0.19,9.97c-0.07,0.05-0.14,0.09-0.21,0.13
		c-0.02-3.78-0.21-7.57,0.22-11.35C300.04,351.29,300.11,351.71,300.17,352.13z"/>
	<path class="st3" d="M300.73,331.03c-0.06,2.83-0.11,5.66-0.17,8.49c-0.06,0.05-0.12,0.1-0.19,0.15
		c-0.05-3.39-0.22-6.79,0.19-10.18C300.62,330,300.68,330.52,300.73,331.03z"/>
	<path class="st4" d="M301.82,291.2c0.34,2.39,0.02,4.76-0.18,7.14C301.57,295.96,301.44,293.58,301.82,291.2z"/>
	<path class="st4" d="M255.79,259.87c-2.97,0.35-5.94,0.4-8.91,0.01C249.86,259.88,252.83,259.87,255.79,259.87z"/>
	<path class="st3" d="M299.44,373.76c0.13,2.78,0.07,5.55-0.13,8.32C299.04,379.3,298.97,376.53,299.44,373.76z"/>
	<path class="st4" d="M302.1,284.95c0.33,1.43,0.62,2.85-0.21,4.22C301.72,287.75,301.74,286.35,302.1,284.95z"/>
	<path class="st4" d="M301.5,307.53c0.35,0.92,0.52,1.84-0.14,2.71c-0.09-0.24-0.17-0.49-0.26-0.73c0.02-0.59,0.04-1.19,0.07-1.78
		C301.27,307.66,301.39,307.6,301.5,307.53z"/>
	<path class="st4" d="M316.37,260.4c-1.45,0.49-2.79-0.36-4.2-0.37C313.61,259.69,314.99,260.02,316.37,260.4z"/>
	<path class="st4" d="M156.37,203.61c0.34,1.19,0.34,2.39,0,3.58C156.13,206,156.13,204.81,156.37,203.61z"/>
	<path class="st4" d="M191.74,339.6c0.48,1.25,0.92,2.51,0.56,3.88C191.99,342.2,191.62,340.94,191.74,339.6z"/>
	<path class="st4" d="M299.07,394.2c0.49,1.14,0.6,2.26-0.12,3.35C298.81,396.43,298.77,395.31,299.07,394.2z"/>
	<path class="st3" d="M301.1,309.51c0.09,0.24,0.17,0.49,0.26,0.73c-0.06,1.94-0.13,3.89-0.19,5.83c-0.06,0.05-0.12,0.1-0.18,0.15
		C300.9,313.98,300.83,311.74,301.1,309.51z"/>
	<path class="st4" d="M196.83,374.63c0.65,1.02,0.88,2.1,0.51,3.28C197.1,376.83,196.76,375.77,196.83,374.63z"/>
	<path class="st4" d="M181.07,266.86c0.38,1.16,0.97,2.29,0.55,3.57C181.28,269.26,180.95,268.09,181.07,266.86z"/>
	<path class="st4" d="M181.7,271.31c0.59,1.03,0.83,2.11,0.51,3.28C181.97,273.5,181.59,272.44,181.7,271.31z"/>
	<path class="st4" d="M195.64,366.04c0.32,1.17,0.96,2.28,0.54,3.56C195.8,368.44,195.52,367.27,195.64,366.04z"/>
	<path class="st4" d="M186.13,301.3c0.35,1.07,0.99,2.09,0.52,3.28C186.28,303.52,186.02,302.44,186.13,301.3z"/>
	<path class="st4" d="M180.5,263c0.31,1.07,0.97,2.08,0.53,3.27C180.6,265.22,180.4,264.14,180.5,263z"/>
	<path class="st3" d="M298.83,398.39c0.12,1.99,0.09,3.98-0.09,5.96C298.43,402.36,298.41,400.37,298.83,398.39z"/>
	<path class="st4" d="M300.73,331.03c-0.06-0.51-0.11-1.03-0.17-1.54c0.01-0.49,0.03-0.97,0.04-1.46c0.1,0,0.2,0,0.3,0
		C301.27,329.05,301.45,330.07,300.73,331.03z"/>
	<path class="st4" d="M196.23,370.19c0.32,1.07,0.98,2.09,0.51,3.28C196.41,372.4,196.09,371.33,196.23,370.19z"/>
	<path class="st2" d="M226.06,235.49c0.69,0.56,1.26,1.24,1.75,1.97C226.49,237.46,225.89,236.82,226.06,235.49z"/>
	<path class="st4" d="M194.99,362.46c0.39,0.95,1.04,1.86,0.6,2.98C195.05,364.52,195.12,363.47,194.99,362.46z"/>
	<path class="st4" d="M259.69,259.43c-1,0.13-1.93,0.87-3.01,0.38C257.65,259.4,258.64,259.16,259.69,259.43z"/>
	<path class="st4" d="M300.17,352.13c-0.06-0.42-0.12-0.84-0.18-1.25c0.02-0.48,0.04-0.97,0.06-1.45c0.1-0.01,0.2-0.01,0.3-0.02
		C300.66,350.33,300.82,351.26,300.17,352.13z"/>
	<path class="st4" d="M186.8,306.02c0.61,0.83,0.77,1.74,0.44,2.73C187.06,307.84,186.7,306.96,186.8,306.02z"/>
	<path class="st3" d="M253.16,386.78c0.37,1.39,0.29,2.81,0.21,4.22C253.11,389.6,252.76,388.21,253.16,386.78z"/>
	<path class="st4" d="M182.3,275.43c0.69,0.93,0.62,1.97,0.47,3.03C182.56,277.46,182.25,276.47,182.3,275.43z"/>
	<path class="st4" d="M299.66,371.04c0.49,0.94,0.57,1.87-0.12,2.76C299.39,372.87,299.36,371.95,299.66,371.04z"/>
	<path class="st3" d="M246.91,282.28c0.4,0.89,0.29,1.81,0.19,2.73C246.35,284.15,246.52,283.23,246.91,282.28z"/>
	<path class="st3" d="M300.91,328.03c-0.1,0-0.2,0-0.3,0c-0.28-0.83-0.48-1.66,0.2-2.41C300.84,326.42,300.87,327.22,300.91,328.03z
		"/>
	<path class="st4" d="M188.39,256.53c-0.88,0.39-1.66,0.1-2.41-0.36C186.85,255.84,187.6,256.36,188.39,256.53z"/>
	<path class="st3" d="M251.35,358.3c0.41,0.78,0.33,1.61,0.23,2.43C250.82,359.99,251,359.15,251.35,358.3z"/>
	<path class="st3" d="M251.97,367.8c0.37,0.79,0.29,1.61,0.19,2.43C251.42,369.47,251.57,368.65,251.97,367.8z"/>
	<path class="st3" d="M301.5,307.53c-0.11,0.07-0.22,0.13-0.33,0.2c-0.18-0.89-0.49-1.8,0.25-2.6
		C301.44,305.93,301.47,306.73,301.5,307.53z"/>
	<path class="st3" d="M246.55,272.54c0,0.79-0.01,1.59-0.01,2.38c-0.8-0.78-0.46-1.69-0.3-2.58
		C246.33,272.41,246.44,272.47,246.55,272.54z"/>
	<path class="st4" d="M302.38,273.35c0.05,1.61,0.22,3.21-0.17,4.8c-0.02-1.56-0.03-3.13-0.05-4.7
		C302.23,273.42,302.31,273.39,302.38,273.35z"/>
	<path class="st3" d="M254.55,405.03c0.04,1.24,0.09,2.48,0.13,3.73c0.01,0.17,0.01,0.35,0.02,0.52c-0.1,0.01-0.2,0.02-0.31,0.03
		c-0.02-1.47-0.04-2.94-0.05-4.41C254.41,404.94,254.48,404.98,254.55,405.03z"/>
	<path class="st4" d="M300.99,316.23c0.06-0.05,0.12-0.1,0.18-0.15c0.08,1.51,0.23,3.03-0.12,4.53
		C301.03,319.15,301.01,317.69,300.99,316.23z"/>
	<path class="st2" d="M298.56,244.15c0.08,0.03,0.16,0.08,0.24,0.13c0.05,0.16,0.11,0.32,0.16,0.49c-0.04,0.04-0.08,0.09-0.12,0.13
		c-1.51-0.2-1.57-0.25-1.6-1.24c0.21,0.2,0.43,0.39,0.76,0.24c0,0,0.13,0.03,0.13,0.03C298.12,244.29,298.36,244.19,298.56,244.15z"
		/>
	<path class="st3" d="M379.03,173.03c-1.49-0.07-3,0.29-4.46-0.29C376.05,172.91,377.57,172.49,379.03,173.03z"/>
	<path class="st3" d="M253.8,396.48c0.38,1.3,0.12,2.65,0.34,3.96c-0.06,0.12-0.12,0.24-0.18,0.36
		C253.58,399.38,253.67,397.93,253.8,396.48z"/>
	<path class="st4" d="M322.35,260.63c-1.4-0.06-2.82,0.2-4.2-0.18c1.39-0.04,2.77-0.08,4.16-0.12
		C322.32,260.43,322.33,260.53,322.35,260.63z"/>
	<path class="st3" d="M247.51,292.98c0.35,0.69,0.28,1.42,0.16,2.14C247.02,294.45,247.11,293.72,247.51,292.98z"/>
	<path class="st3" d="M246.01,262.42c-0.02,0.7-0.04,1.4-0.06,2.1c-0.78-0.69-0.47-1.5-0.26-2.3
		C245.8,262.29,245.91,262.35,246.01,262.42z"/>
	<path class="st3" d="M251.06,352.92c0.2,1.35,0.35,2.71,0.13,4.08C250.91,355.65,250.96,354.29,251.06,352.92z"/>
	<path class="st4" d="M246.01,262.42c-0.11-0.07-0.21-0.13-0.32-0.2c0.04-0.35,0.08-0.71,0.12-1.06
		C246.35,261.51,246.27,261.95,246.01,262.42z"/>
	<path class="st4" d="M206.51,255.35c-0.53,0.4-1.03,0.93-1.81,0.57C205.24,255.53,205.87,255.41,206.51,255.35z"/>
	<path class="st3" d="M248.38,309.31c0.22,0.5,0.29,1.02,0.09,1.55C248.03,310.37,248.08,309.85,248.38,309.31z"/>
	<path class="st4" d="M187.32,309.58c0.55,0.47,0.48,1.08,0.38,1.69C187.27,310.77,187.24,310.19,187.32,309.58z"/>
	<path class="st3" d="M248.1,303.34c0.26,0.51,0.25,1.04,0.13,1.58C247.72,304.43,247.68,303.91,248.1,303.34z"/>
	<path class="st4" d="M192.38,344.32c0.55,0.47,0.48,1.07,0.37,1.68C192.37,345.5,192.29,344.93,192.38,344.32z"/>
	<path class="st4" d="M165.87,230c0.61,0.2,1,0.6,1.15,1.22C166.47,230.97,166.1,230.55,165.87,230z"/>
	<path class="st4" d="M187.91,313.74c0.58,0.46,0.48,1.07,0.38,1.69C187.91,314.92,187.82,314.35,187.91,313.74z"/>
	<path class="st4" d="M253.51,391.84c0.55,0.48,0.58,1,0.14,1.56C253.39,392.9,253.39,392.37,253.51,391.84z"/>
	<path class="st4" d="M168.2,232.41c0.63,0.15,0.98,0.59,1.2,1.16c-0.1-0.01-0.21-0.03-0.31-0.04c-0.14-0.01-0.29-0.02-0.43-0.03
		C168.92,232.97,168.2,232.84,168.2,232.41z"/>
	<path class="st3" d="M252.57,377.3c0.29,0.5,0.25,1.02,0.13,1.56C252.15,378.38,252.17,377.85,252.57,377.3z"/>
	<path class="st4" d="M253.96,400.8c0.06-0.12,0.12-0.24,0.18-0.36c0.51,0.45,0.48,0.98,0.19,1.53c-0.1,0-0.19-0.01-0.29-0.01
		C254.01,401.57,253.99,401.19,253.96,400.8z"/>
	<path class="st4" d="M197.43,378.77c0.54,0.47,0.48,1.07,0.37,1.68C197.39,379.95,197.35,379.37,197.43,378.77z"/>
	<path class="st3" d="M302.54,265.63c0.04,0.5,0.08,1,0.12,1.5c-0.1,0.02-0.19,0.03-0.29,0.03
		C302.09,266.62,302.02,266.09,302.54,265.63z"/>
	<path class="st4" d="M246.55,272.54c-0.11-0.06-0.21-0.13-0.32-0.19c0.05-0.26,0.1-0.53,0.15-0.79
		C246.86,271.81,246.82,272.15,246.55,272.54z"/>
	<path class="st4" d="M156.84,200.22c0.13,0.6,0.07,1.16-0.36,1.63C156.38,201.26,156.43,200.7,156.84,200.22z"/>
	<path class="st4" d="M157.04,213.08c0.62,0.51,0.53,1.19,0.44,1.86C157.35,214.32,156.99,213.75,157.04,213.08z"/>
	<path class="st3" d="M246.59,259.75c-0.29,0.02-0.58,0.05-0.87,0.07c0.01-0.29,0.04-0.61,0.38-0.64
		C246.46,259.15,246.52,259.48,246.59,259.75z"/>
	<path class="st4" d="M192.79,346.41c0.29,0.39,0.33,0.79,0.09,1.22C192.71,347.24,192.67,346.83,192.79,346.41z"/>
	<path class="st4" d="M251.72,362.17c0.33,0.79,0.24,1.61,0.18,2.43c-0.08-0.03-0.15-0.07-0.22-0.11
		C251.7,363.72,251.71,362.94,251.72,362.17z"/>
	<path class="st3" d="M300.34,349.4c-0.1,0.01-0.2,0.01-0.3,0.02c-0.28-0.45-0.32-0.87,0.13-1.24
		C300.23,348.59,300.28,348.99,300.34,349.4z"/>
	<path class="st3" d="M248.26,305.76c0.18,0.8,0.19,1.6,0.07,2.4C247.99,307.37,247.98,306.57,248.26,305.76z"/>
	<path class="st4" d="M246.12,266.57c0.31,0.8,0.2,1.62,0.13,2.43c-0.07-0.04-0.13-0.08-0.19-0.13
		C246.08,268.1,246.1,267.33,246.12,266.57z"/>
	<path class="st2" d="M228.51,238.14c0.31,0.23,0.65,0.42,0.8,0.81C228.57,239.15,228.26,238.92,228.51,238.14z"/>
	<path class="st4" d="M156.53,209.81c0.41,0.4,0.41,0.88,0.29,1.39C156.45,210.79,156.39,210.32,156.53,209.81z"/>
	<path class="st3" d="M299.24,385.29c0.15,0.43,0.15,0.86-0.03,1.29C298.82,386.14,298.82,385.71,299.24,385.29z"/>
	<path class="st3" d="M322.35,260.63c-0.02-0.1-0.03-0.2-0.05-0.3c0.24-0.15,0.48-0.15,0.62,0.11c0.14,0.26,0.01,0.46-0.27,0.56
		C322.56,260.88,322.45,260.75,322.35,260.63z"/>
	<path class="st3" d="M409.43,218.21c-0.05-0.58,0.23-1.08,0.43-1.59C409.95,217.21,409.99,217.79,409.43,218.21z"/>
	<path class="st4" d="M252.94,382.92c0.42,0.29,0.48,0.62,0.08,0.98C252.85,383.59,252.84,383.26,252.94,382.92z"/>
	<path class="st4" d="M192.45,162c0.36,0.3,0.39,0.69,0.27,1.11C192.42,162.8,192.33,162.43,192.45,162z"/>
	<path class="st4" d="M192.72,154.16c0.13,0.41,0.1,0.79-0.23,1.11C192.35,154.86,192.42,154.49,192.72,154.16z"/>
	<path class="st3" d="M246.06,268.87c0.06,0.04,0.13,0.08,0.19,0.13c-0.08,0.63,0.22,1.28-0.09,1.9
		C245.95,270.23,245.95,269.55,246.06,268.87z"/>
	<path class="st3" d="M409.86,200.14c-0.25-0.4-0.47-0.81-0.42-1.31C409.92,199.16,409.94,199.63,409.86,200.14z"/>
	<path class="st4" d="M187.75,311.97c0.24,0.29,0.28,0.6,0.07,0.93C187.67,312.6,187.63,312.29,187.75,311.97z"/>
	<path class="st3" d="M246.84,278.81c-0.03,0.47-0.07,0.94-0.1,1.41c-0.23-0.5-0.19-1.01-0.11-1.53
		C246.69,278.74,246.76,278.78,246.84,278.81z"/>
	<path class="st4" d="M298,243.9c-0.33,0.15-0.54-0.04-0.76-0.24c-0.01-0.1-0.03-0.2-0.04-0.3C297.56,243.39,297.88,243.5,298,243.9
		z"/>
	<path class="st4" d="M246.84,278.81c-0.07-0.03-0.14-0.07-0.21-0.11c0.03-0.48,0.05-0.96,0.08-1.45
		C246.95,277.75,246.93,278.28,246.84,278.81z"/>
	<path class="st3" d="M299.28,382.97c0.13,0.49,0.14,0.98-0.03,1.47C299.03,383.94,299.04,383.45,299.28,382.97z"/>
	<path class="st3" d="M302.38,273.35c-0.07,0.03-0.15,0.07-0.22,0.11c0.02-0.47,0.04-0.93,0.06-1.4
		C302.28,272.49,302.33,272.92,302.38,273.35z"/>
	<path class="st2" d="M227.9,237.53c0.16,0.17,0.33,0.34,0.49,0.51C227.94,238.14,227.79,237.96,227.9,237.53z"/>
	<path class="st3" d="M380.25,173.22c-0.24,0.1-0.46,0.05-0.65-0.13C379.88,172.87,380.09,172.91,380.25,173.22z"/>
	<path class="st3" d="M374.96,152.75c-0.29-0.2-0.4-0.47-0.35-0.82C374.93,152.12,375.05,152.39,374.96,152.75z"/>
	<path class="st4" d="M156.88,211.61c0.2,0.19,0.22,0.4,0.06,0.63C156.8,212.04,156.77,211.83,156.88,211.61z"/>
	<path class="st4" d="M299.76,362.22c0.07-0.04,0.14-0.08,0.21-0.13c-0.01,0.48-0.02,0.96-0.04,1.44
		C299.88,363.09,299.82,362.66,299.76,362.22z"/>
	<path class="st4" d="M247.25,287.04c0.25,0.39,0.27,0.8,0.05,1.21C247.16,287.85,247.15,287.45,247.25,287.04z"/>
	<path class="st4" d="M302.37,267.17c0.1,0,0.2-0.01,0.29-0.03c0.16,0.25,0.14,0.47-0.09,0.67
		C302.51,267.59,302.44,267.38,302.37,267.17z"/>
	<path class="st4" d="M293.16,240.75c0.34,0.02,0.56,0.19,0.68,0.51C293.51,241.23,293.31,241.03,293.16,240.75z"/>
	<path class="st4" d="M300.38,339.67c0.06-0.05,0.13-0.1,0.19-0.15c-0.01,0.48-0.02,0.97-0.03,1.45
		C300.48,340.54,300.43,340.1,300.38,339.67z"/>
	<path class="st3" d="M254.04,401.96c0.1,0.01,0.19,0.01,0.29,0.01c-0.06,0.21-0.12,0.42-0.18,0.64
		C253.85,402.44,253.84,402.21,254.04,401.96z"/>
	<path class="st4" d="M289.95,238.03c0.32,0.07,0.52,0.26,0.63,0.57C290.26,238.54,290.05,238.35,289.95,238.03z"/>
	<path class="st4" d="M252.4,374.01c0.3,0.21,0.32,0.44,0.04,0.69C252.43,374.47,252.41,374.24,252.4,374.01z"/>
	<path class="st3" d="M251.68,364.49c0.07,0.04,0.14,0.08,0.22,0.11c-0.05,0.33-0.1,0.67-0.15,1
		C251.73,365.23,251.71,364.86,251.68,364.49z"/>
	<path class="st4" d="M197.86,381.11c0.01,0.33,0.01,0.67,0.02,1C197.76,381.77,197.73,381.44,197.86,381.11z"/>
	<path class="st4" d="M156.42,202.42c0.15,0.22,0.14,0.43-0.03,0.63C156.4,202.84,156.41,202.63,156.42,202.42z"/>
	<path class="st3" d="M407.2,192.99c-0.08-0.22-0.17-0.43-0.25-0.65C407.04,192.56,407.12,192.77,407.2,192.99z"/>
	<path class="st3" d="M407.8,194.17c-0.21-0.17-0.27-0.4-0.26-0.65C407.63,193.73,407.71,193.95,407.8,194.17z"/>
	<path class="st3" d="M406.61,191.8c-0.09-0.22-0.18-0.43-0.27-0.65C406.43,191.36,406.52,191.58,406.61,191.8z"/>
	<path class="st4" d="M254.55,405.03c-0.07-0.05-0.14-0.09-0.21-0.13c0.05-0.24,0.11-0.48,0.16-0.72
		C254.51,404.46,254.53,404.75,254.55,405.03z"/>
	<path class="st4" d="M192.78,163.42c0.01,0.25,0.03,0.5,0.04,0.75C192.81,163.92,192.8,163.67,192.78,163.42z"/>
	<path class="st4" d="M156.9,199.15c-0.01,0.24-0.03,0.48-0.04,0.73C156.87,199.64,156.88,199.4,156.9,199.15z"/>
	<path class="st3" d="M408.95,197.2c-0.21-0.19-0.26-0.44-0.21-0.71C408.81,196.72,408.88,196.96,408.95,197.2z"/>
	<path class="st4" d="M192.83,152.53c0,0.22-0.01,0.44-0.01,0.66C192.83,152.97,192.83,152.75,192.83,152.53z"/>
	<path class="st3" d="M375.11,153.54c-0.02-0.18-0.03-0.35-0.05-0.53C375.07,153.18,375.09,153.36,375.11,153.54z"/>
	<path class="st4" d="M295.7,242.48c0.08-0.02,0.13,0.01,0.17,0.08c0,0-0.11,0.01-0.11,0.01L295.7,242.48z"/>
	<path class="st4" d="M296.31,242.88c0.16,0.06,0.32,0.13,0.49,0.19C296.63,243.01,296.47,242.94,296.31,242.88z"/>
	<path class="st3" d="M374.18,150.63c-0.06-0.16-0.12-0.31-0.18-0.47C374.06,150.31,374.12,150.47,374.18,150.63z"/>
	<path class="st3" d="M402.8,186.01c-0.09-0.07-0.18-0.15-0.27-0.22C402.63,185.86,402.72,185.94,402.8,186.01z"/>
	<polygon class="st2" points="225.97,235.38 226.03,235.45 225.94,235.46 	"/>
	<path class="st3" d="M407.6,222.94c0.08-0.09,0.16-0.19,0.24-0.28C407.76,222.75,407.68,222.85,407.6,222.94z"/>
	<path class="st3" d="M373.59,149.14c-0.06-0.15-0.12-0.31-0.17-0.46C373.47,148.83,373.53,148.99,373.59,149.14z"/>
	<path class="st2" d="M169.55,233.87c0.09,0.03,0.14,0.08,0.17,0.17c-0.01,0.15-0.01,0.3-0.02,0.44c0,0-0.03,0.02-0.03,0.02
		C169.63,234.29,169.59,234.08,169.55,233.87z"/>
	<path class="st2" d="M168.65,233.51c0.14,0.01,0.29,0.02,0.43,0.03C168.94,233.53,168.8,233.52,168.65,233.51z"/>
	<path class="st3" d="M406.07,190.8c-0.08-0.09-0.16-0.17-0.24-0.26C405.9,190.63,405.99,190.71,406.07,190.8z"/>
	<path class="st3" d="M408.34,195.44c-0.05-0.15-0.1-0.29-0.15-0.44C408.24,195.15,408.29,195.29,408.34,195.44z"/>
	<path class="st3" d="M245.62,260.03c-0.01,0.16-0.02,0.32-0.03,0.48C245.6,260.34,245.61,260.19,245.62,260.03z"/>
	<path class="st4" d="M192.3,158.76c0.02,0.08,0.05,0.16,0.06,0.23c0,0.03-0.04,0.07-0.06,0.11
		C192.3,158.99,192.3,158.88,192.3,158.76z"/>
	<path class="st3" d="M247.74,297.43c0,0.11,0.01,0.22,0.01,0.34c-0.03-0.08-0.06-0.15-0.07-0.23
		C247.67,297.51,247.72,297.47,247.74,297.43z"/>
	<path class="st3" d="M373.1,148.06c-0.05-0.09-0.1-0.18-0.15-0.27C373,147.88,373.05,147.97,373.1,148.06z"/>
	<path class="st4" d="M189.64,325.34c0.06,0.16,0.11,0.32,0.17,0.48C189.76,325.65,189.7,325.49,189.64,325.34z"/>
	<path class="st3" d="M372.51,146.87c-0.08-0.09-0.16-0.18-0.24-0.27C372.34,146.69,372.42,146.78,372.51,146.87z"/>
	<path class="st4" d="M266.64,156.59c8.48,0.38,15.63,3.6,20.19,11.47c0.67,1.15,1.26,2.36,1.35,3.73c0.16,2.32-1.37,3.5-3.6,2.78
		c-1.15-0.37-2.13-1.07-3.03-1.83c-9.18-7.67-21.26-7.44-30.78,0.19c-0.98,0.79-2.02,1.42-3.26,1.69c-2.34,0.51-3.68-0.77-3.21-3.14
		c0.42-2.13,1.48-3.98,2.81-5.66C252.01,159.61,258.56,156.83,266.64,156.59z"/>
	<path class="st4" d="M373.13,244.39c-0.54,0.21-1.06,0.18-1.56-0.11C372.11,243.97,372.64,243.91,373.13,244.39z"/>
	<path class="st4" d="M376.68,244.3c-0.41,0.26-0.82,0.3-1.26,0.08C375.81,243.96,376.23,244,376.68,244.3z"/>
	<path class="st4" d="M370.43,244.19c-0.62,0.07-1.24,0.1-1.83-0.18C369.21,243.95,369.84,243.9,370.43,244.19z"/>
	<path class="st3" d="M298.97,244.77c-0.05-0.16-0.11-0.32-0.16-0.49c0.44,0.2,0.88,0.4,1.32,0.6
		C299.74,244.84,299.35,244.8,298.97,244.77z"/>
	<path class="st4" d="M379.92,243.98c-0.46,0.36-0.98,0.26-1.5,0.2C378.89,243.92,379.41,243.98,379.92,243.98z"/>
	<path class="st3" d="M219.84,231.82c-0.06,0.35-0.24,0.57-0.62,0.56C219.24,231.99,219.54,231.9,219.84,231.82z"/>
	<path class="st3" d="M305.27,246.79c-0.35,0.1-0.63-0.01-0.85-0.3C304.76,246.42,305.06,246.48,305.27,246.79z"/>
	<path class="st3" d="M307,247.19c-0.49,0.12-0.94,0.03-1.36-0.27C306.12,246.87,306.59,246.87,307,247.19z"/>
	<path class="st3" d="M219.22,232.38c-0.01,0.39-0.21,0.59-0.6,0.59C218.67,232.62,218.86,232.42,219.22,232.38z"/>
	<path class="st3" d="M218.62,232.97c0.01,0.38-0.21,0.57-0.56,0.65C218.11,233.28,218.23,233.01,218.62,232.97z"/>
	<path class="st4" d="M385.25,242.79c-0.35,0.33-0.77,0.34-1.21,0.3C384.39,242.81,384.81,242.74,385.25,242.79z"/>
	<path class="st4" d="M366.87,243.63c-0.37,0.08-0.73,0.05-1.06-0.16C366.19,243.39,366.55,243.42,366.87,243.63z"/>
	<path class="st4" d="M298.56,244.15c-0.21,0.04-0.44,0.14-0.44-0.23C298.27,244,298.42,244.07,298.56,244.15z"/>
	<path class="st5" d="M169.69,234.49c0.01-0.15,0.01-0.29,0.02-0.44c0.24,0.09,0.46,0.21,0.54,0.48
		C170.07,234.51,169.88,234.5,169.69,234.49z"/>
	<path class="st3" d="M302.85,246c-0.16-0.05-0.33-0.09-0.49-0.14C302.52,245.9,302.69,245.95,302.85,246z"/>
	<path class="st4" d="M364.2,243.02c-0.17-0.05-0.33-0.09-0.5-0.14C363.87,242.93,364.04,242.98,364.2,243.02z"/>
	<path class="st4" d="M359.78,241.37c-0.23,0.03-0.42-0.03-0.56-0.23C359.4,241.22,359.59,241.3,359.78,241.37z"/>
	<path class="st3" d="M301.1,245.36c-0.16-0.06-0.32-0.11-0.48-0.17C300.78,245.25,300.94,245.3,301.1,245.36z"/>
	<path class="st3" d="M308.41,247.54c-0.12-0.02-0.25-0.04-0.37-0.05C308.16,247.5,308.28,247.52,308.41,247.54z"/>
	<path class="st3" d="M216.01,235.36c-0.12,0.11-0.24,0.22-0.35,0.33C215.78,235.57,215.89,235.46,216.01,235.36z"/>
	<path class="st4" d="M358.87,240.97c-0.16-0.07-0.32-0.13-0.49-0.2C358.54,240.84,358.71,240.9,358.87,240.97z"/>
	<path class="st5" d="M231.45,240.73c-0.13-0.1-0.26-0.21-0.39-0.31C231.19,240.52,231.32,240.63,231.45,240.73z"/>
	<path class="st4" d="M287.82,235.86c-0.14-0.14-0.29-0.29-0.43-0.43C287.53,235.57,287.68,235.72,287.82,235.86z"/>
	<path class="st4" d="M394.35,238.42c-0.16,0.09-0.31,0.18-0.47,0.27C394.04,238.6,394.19,238.51,394.35,238.42z"/>
	<path class="st4" d="M395.22,237.8c-0.15,0.11-0.29,0.22-0.44,0.33C394.93,238.01,395.07,237.91,395.22,237.8z"/>
	<path class="st5" d="M268.36,358.87c-0.05-2.54-0.1-5.08-0.15-7.63c0.45-1.63,0.62-3.25-0.16-4.84c0-0.28-0.01-0.56-0.01-0.84
		c0.22-0.31,0.21-0.62-0.02-0.92c-0.06-1.86-0.13-3.72-0.19-5.59c0.04-0.11,0.09-0.22,0.13-0.33c0.16-0.07,0.31-0.15,0.47-0.22
		c0.95,5.49,0.66,11.03,0.72,16.55c0.1,8.63,0.68,17.25,0.72,25.89c0.01,3.26,0.5,6.57,0.39,9.87c-0.25-0.04-0.5-0.09-0.75-0.13
		c-0.01-0.24-0.02-0.49-0.02-0.73c0.17-1.47,0.64-2.97-0.3-4.36c-0.05-1.17-0.1-2.35-0.15-3.52c0.02-1.08,0.04-2.15,0.06-3.23
		c-0.02-0.26-0.03-0.51-0.05-0.77c-0.11-1.53-0.23-3.06-0.34-4.58c0.06-0.51,0.11-1.02,0.17-1.52c0.26-1.61,0.61-3.23-0.26-4.79
		c-0.07-2.35-0.15-4.7-0.22-7.05C268.53,359.72,268.53,359.29,268.36,358.87z"/>
	<path class="st5" d="M267.5,327.1c0-0.18-0.01-0.36-0.01-0.55c0.21-0.3,0.2-0.61-0.01-0.91c0-0.29-0.01-0.58-0.01-0.87
		c0.49-1.29-0.08-2.68,0.37-3.98c0.53,0.71,0.67,1.56,0.67,2.37c0.03,4.86,0.18,9.72-0.07,14.57c-0.16-0.07-0.33-0.14-0.49-0.2
		c0-0.2-0.01-0.39-0.01-0.59c0.29-0.54,0.37-1.06-0.12-1.54c-0.24-1.65-0.25-3.3-0.2-4.96C268.09,329.32,268.15,328.2,267.5,327.1z"
		/>
	<path class="st5" d="M269.62,394.39c-0.02-0.34-0.04-0.68-0.06-1.02c0.24-0.06,0.47-0.12,0.71-0.18c-0.04,4.3,0.44,8.57,0.66,12.86
		c0.04,0.69,0.06,1.39-0.42,1.98c-0.07-0.57-0.13-1.15-0.21-1.72c-0.11-0.78,0.28-1.67-0.52-2.29c-0.04-0.78-0.09-1.56-0.13-2.34
		c0.02-1.17,0.05-2.34,0.07-3.52C269.81,396.9,269.86,395.64,269.62,394.39z"/>
	<path class="st5" d="M267.02,309.37c0.57-0.93,0.25-1.92,0.19-2.88c-0.09-1.47-0.36-2.94,0.11-4.4c0.38,0.59,0.62,1.24,0.62,1.95
		c-0.02,3.1-0.04,6.2-0.07,9.31c-0.23-0.29-0.36-0.68-0.75-0.82C266.96,311.48,266.93,310.43,267.02,309.37z"/>
	<path class="st3" d="M267.13,312.52c0.39,0.15,0.51,0.53,0.75,0.82c-0.01,2.49-0.03,4.97-0.04,7.46c-0.45,1.29,0.12,2.68-0.37,3.97
		c-0.09-2.16-0.17-4.33-0.26-6.49c0.11-0.72,0.16-1.44-0.13-2.13C267.21,314.94,266.77,313.73,267.13,312.52z"/>
	<path class="st5" d="M266.76,272.95c-1.01-2.05-0.68-4.27-0.81-6.43c-0.05-0.73-0.31-1.59,0.5-2.15
		C267.13,267.2,266.64,270.09,266.76,272.95z"/>
	<path class="st5" d="M267.35,291.95c-0.17-0.23-0.47-0.46-0.48-0.7c-0.14-2.35-0.24-4.7-0.34-7.05c-0.02-0.37,0.2-0.64,0.52-0.84
		C267.55,286.21,267.34,289.09,267.35,291.95z"/>
	<path class="st3" d="M269.77,404.02c0.81,0.62,0.42,1.51,0.52,2.29c0.08,0.57,0.14,1.14,0.21,1.72c-0.01,0.28-0.02,0.56-0.03,0.83
		c-0.16,0.08-0.31,0.17-0.46,0.25c-0.09-0.31-0.18-0.62-0.27-0.93C269.75,406.8,269.76,405.41,269.77,404.02z"/>
	<path class="st3" d="M270.26,393.19c-0.24,0.06-0.47,0.12-0.71,0.18c-0.09-0.48-0.17-0.97-0.26-1.45c0.08-0.4,0.15-0.81,0.22-1.21
		c0.25,0.04,0.5,0.08,0.75,0.13C270.27,391.62,270.27,392.41,270.26,393.19z"/>
	<path class="st3" d="M267.95,337.54c0.16,0.07,0.33,0.13,0.49,0.2c0,0.26,0,0.51,0,0.77c-0.16,0.07-0.31,0.14-0.47,0.22
		C267.96,338.33,267.96,337.94,267.95,337.54z"/>
	<path class="st3" d="M320.09,303.84c-0.19-1.83-0.03-3.66,0.09-5.48c0.46-7.45,0.99-14.9,1.48-22.35c0.09-1.33,0.08-2.67,0.12-4
		c0.07-0.04,0.14-0.07,0.22-0.1c0.34,0.91-0.25,1.91,0.28,2.8c-0.1,1.6-0.13,3.2,0.02,4.79c-0.73,1.33-1.35,2.67-0.32,4.13
		c-0.43,1.77-0.45,3.56-0.28,5.37c-0.99,1.45-1.1,2.97-0.31,4.13c-0.19,2.09-0.58,4.16-0.32,6.27c-0.6,0.35-0.61,0.97-0.69,1.54
		C320.26,301.9,320.18,302.87,320.09,303.84z"/>
	<path class="st5" d="M319.23,315.52c0.09-0.53,0.19-1.06,0.28-1.59c0.02-0.46,0.05-0.93,0.07-1.39c-0.02-0.68-0.04-1.36-0.06-2.04
		c0.05-0.48,0.1-0.96,0.15-1.45c0.57-0.28,0.46-1.11,1.09-1.34c-0.83,4.36-0.09,8.85-1.03,13.21c-0.13,0.62-0.1,1.28-0.1,1.92
		c0.03,3.21,0.09,6.41-0.71,9.55c-0.17-0.07-0.34-0.14-0.51-0.2c0.04-1.08,0.07-2.15,0.11-3.23c0.73-0.97,0.59-1.99,0.17-3.03
		c0.05-0.97,0.09-1.93,0.14-2.9c0.01-0.23,0.03-0.46,0.04-0.69c0.05-0.67,0.11-1.34,0.16-2.01c0.03-0.03,0.07-0.07,0.07-0.1
		c-0.01-0.08-0.04-0.16-0.06-0.23c0.01-0.28,0.03-0.56,0.04-0.83c0.81-0.93,0.54-1.97,0.3-3.01
		C319.34,315.94,319.29,315.73,319.23,315.52z"/>
	<path class="st5" d="M314.48,398.99c0.05-0.68,0.1-1.36,0.15-2.04c0.56-0.28,0.46-1.11,1.09-1.34c-0.45,3.69-0.66,7.4-0.56,11.11
		c0.02,0.69-0.29,1.12-1.05,1.1C314.09,404.88,314.71,401.95,314.48,398.99z"/>
	<path class="st5" d="M317.75,341.95c0.07-1.16,0.15-2.32,0.22-3.48c0.61-0.68,0.59-1.41,0.15-2.17c-0.05-0.7,0.01-1.4,0.2-2.08
		c0.2-0.05,0.41-0.1,0.61-0.16c0.32,2.85,0.07,5.65-0.6,8.42c-0.15-0.08-0.3-0.15-0.45-0.22
		C317.84,342.16,317.79,342.06,317.75,341.95z"/>
	<path class="st3" d="M317.19,350.86c0.05-0.82,0.09-1.61-0.11-2.43c-0.13-0.55-0.27-1.28,0.44-1.68c0.62,1.18-0.4,2.49,0.29,3.66
		c0.01,1.7,0.02,3.39,0.02,5.09c-0.28,0.06-0.56,0.12-0.84,0.18c-0.01-0.7-0.02-1.4-0.03-2.1c0.29-0.48,0.26-1,0.17-1.52
		c0.02-0.27,0.03-0.55,0.05-0.82C317.18,351.11,317.19,350.99,317.19,350.86z"/>
	<path class="st3" d="M316.39,366.06c0-0.7-0.01-1.39-0.01-2.09c0.28-0.49,0.27-1.01,0.16-1.54c0.02-0.37,0.04-0.74,0.06-1.12
		c0.01-0.22,0.02-0.43,0.03-0.65c-0.36-1.06,0.19-2.09,0.1-3.15c0.07-0.04,0.14-0.08,0.22-0.1c0.34,1.01-0.27,2.1,0.27,3.09
		c0.01,1.79,0.01,3.59,0.02,5.38C316.95,365.95,316.67,366.01,316.39,366.06z"/>
	<path class="st3" d="M316.06,371.09c0.02-0.76,0.04-1.52,0.07-2.29c0.06-0.05,0.13-0.1,0.2-0.14c0.17,0.64-0.05,1.34,0.3,1.95
		c-0.12,2.09-0.12,4.18,0.02,6.27c-0.29,0.06-0.58,0.11-0.87,0.17c0-0.99,0-1.99,0-2.98c0.3-0.48,0.28-1,0.19-1.53
		c0.02-0.28,0.04-0.56,0.06-0.84C316.04,371.5,316.05,371.29,316.06,371.09z"/>
	<path class="st4" d="M314.48,398.99c0.23,2.96-0.39,5.89-0.36,8.85c-0.06,0.03-0.12,0.06-0.19,0.07
		C313.46,404.89,313.91,401.94,314.48,398.99z"/>
	<path class="st3" d="M315.48,381.47c0.02-0.56,0.04-1.12,0.06-1.68c0.06-0.05,0.12-0.1,0.19-0.14c0.12,0.33,0.26,0.64,0.61,0.79
		c-0.4,1.97-0.48,3.96-0.32,5.97c-0.27,0.15-0.54,0.31-0.81,0.46c-0.01-0.8-0.02-1.6-0.02-2.39
		C315.59,383.49,315.5,382.48,315.48,381.47z"/>
	<path class="st5" d="M315.21,386.86c0.27-0.15,0.54-0.3,0.81-0.46c0.46,0.76,0.13,1.55-0.02,2.28c-0.29,1.4-0.15,2.82-0.29,4.22
		c-0.84-0.59-0.36-1.52-0.59-2.27c-0.02-0.57-0.05-1.15-0.07-1.72C315.11,388.22,315.16,387.54,315.21,386.86z"/>
	<path class="st3" d="M315.13,390.63c0.23,0.75-0.25,1.68,0.59,2.27c0,0.91,0.01,1.81,0.01,2.72c-0.64,0.22-0.53,1.05-1.1,1.34
		c0-0.8-0.01-1.59-0.01-2.39c0.26-0.5,0.26-1.02,0.13-1.55c0.06-0.76,0.12-1.51,0.18-2.27
		C314.99,390.71,315.06,390.67,315.13,390.63z"/>
	<path class="st5" d="M316.63,370.61c-0.35-0.61-0.14-1.31-0.3-1.95c-0.05-0.43-0.1-0.87-0.15-1.3c0.07-0.43,0.15-0.86,0.22-1.3
		c0.28-0.06,0.57-0.12,0.85-0.18C317.12,367.47,317.7,369.15,316.63,370.61z"/>
	<path class="st5" d="M317.81,350.41c-0.69-1.17,0.33-2.48-0.29-3.66c0.03-0.47,0.07-0.95,0.1-1.42c0.18,0.22,0.41,0.35,0.71,0.3
		C318.31,347.24,318.98,348.92,317.81,350.41z"/>
	<path class="st5" d="M317.22,360.51c-0.54-0.99,0.06-2.08-0.27-3.09c-0.06-0.35-0.11-0.7-0.17-1.05c0.07-0.23,0.14-0.47,0.21-0.7
		c0.28-0.06,0.56-0.12,0.84-0.18C317.69,357.17,318.34,358.95,317.22,360.51z"/>
	<path class="st3" d="M320.77,307.72c-0.63,0.23-0.52,1.06-1.09,1.34c0-0.89,0.01-1.79,0.01-2.68c0.03-0.22,0.06-0.44,0.09-0.66
		c0.08-0.29,0.17-0.58,0.25-0.87c0.25,0.06,0.51,0.12,0.76,0.17C320.79,305.92,320.78,306.82,320.77,307.72z"/>
	<path class="st5" d="M320.8,305.02c-0.25-0.06-0.51-0.12-0.76-0.17c0.02-0.33,0.03-0.67,0.05-1c0.1-0.97,0.17-1.94,0.3-2.9
		c0.07-0.57,0.09-1.19,0.69-1.54C321.4,301.29,320.56,303.13,320.8,305.02z"/>
	<path class="st5" d="M322.27,274.7c-0.53-0.89,0.05-1.89-0.28-2.8c-0.05-0.19-0.09-0.38-0.14-0.58c0.06-0.19,0.11-0.39,0.17-0.58
		c0.29-0.06,0.57-0.12,0.86-0.18C322.8,271.97,323.26,273.44,322.27,274.7z"/>
	<path class="st5" d="M321.97,283.63c-1.04-1.47-0.41-2.8,0.32-4.13C322.25,280.88,322.52,282.28,321.97,283.63z"/>
	<path class="st5" d="M316.34,380.43c-0.35-0.15-0.5-0.46-0.61-0.79c-0.03-0.48-0.05-0.95-0.08-1.43c0.04-0.39,0.09-0.78,0.13-1.17
		c0.29-0.06,0.58-0.11,0.87-0.17C316.7,378.07,316.7,379.27,316.34,380.43z"/>
	<path class="st3" d="M318.33,345.63c-0.3,0.05-0.53-0.08-0.71-0.3c-0.02-0.62-0.05-1.23-0.07-1.85c0.11-0.4,0.22-0.81,0.34-1.21
		c0.15,0.07,0.3,0.15,0.45,0.22C318.33,343.54,318.33,344.58,318.33,345.63z"/>
	<path class="st5" d="M321.39,293.13c-0.8-1.16-0.68-2.68,0.31-4.13C321.78,290.39,321.68,291.76,321.39,293.13z"/>
	<path class="st3" d="M318.93,334.07c-0.2,0.05-0.41,0.1-0.61,0.16c-0.05-0.28-0.09-0.56-0.14-0.83c0.17-0.31,0.19-0.62,0.08-0.95
		c0.04-0.09,0.09-0.18,0.16-0.25c0.17,0.07,0.34,0.13,0.51,0.2C318.93,332.95,318.93,333.51,318.93,334.07z"/>
	<path class="st5" d="M211.9,268.63c-0.04-0.18-0.09-0.37-0.13-0.55c0.02-0.31,0.05-0.61,0.07-0.92c0.27-0.47,0.29-0.9-0.24-1.22
		c-0.03-0.27-0.07-0.55-0.1-0.82c0.53-0.81-0.22-1.72,0.22-2.54c0.45,0.43,0.73,0.96,0.7,1.58c-0.15,2.98,0.42,5.92,0.77,8.83
		c0.32,2.72,0.08,5.52,0.9,8.19c0.1,0.33,0.16,0.69,0.13,1.02c-0.25,2.92,0.94,5.73,0.65,8.66c-0.1,0.97,1.02,1.92,0.07,2.93
		c-0.22-0.09-0.45-0.17-0.67-0.25c-0.05-0.38-0.1-0.77-0.15-1.15c0.03-0.29,0.05-0.57,0.08-0.85c0.07-0.32,0.06-0.64-0.11-0.93
		c-0.06-0.49-0.12-0.98-0.18-1.47c0.37-0.57,0.39-1.1-0.21-1.54c-0.06-0.48-0.11-0.96-0.17-1.44c-0.03-0.3-0.06-0.59-0.08-0.89
		c-0.05-0.69-0.09-1.38-0.14-2.07c0.38-0.57,0.39-1.1-0.2-1.55c-0.14-1.56-0.28-3.12-0.42-4.69c0.31-0.37,0.29-0.69-0.13-0.96
		c-0.08-0.86-0.16-1.72-0.24-2.59c0.03-0.21,0.06-0.42,0.09-0.63c0.19-0.27,0.16-0.49-0.15-0.64c-0.05-0.36-0.1-0.73-0.16-1.09
		C212.52,270.22,212.13,269.43,211.9,268.63z"/>
	<path class="st5" d="M217.4,325.32c0.01-0.37,0.01-0.75,0.02-1.12c0.23-0.27,0.19-0.49-0.12-0.67c-0.06-0.07-0.13-0.14-0.19-0.21
		c0.03-0.31,0.05-0.62,0.08-0.93c0.33-1.12-0.31-2.28,0.15-3.39c0.44,0.52,0.61,1.19,0.59,1.8c-0.08,2.72,0.51,5.37,0.8,8.03
		c0.31,2.9,0.49,5.83,0.92,8.73c0.34,2.26,0.59,4.61,0.34,6.94c-0.24-0.15-0.47-0.31-0.71-0.46c-0.05-0.29-0.09-0.57-0.14-0.86
		c0.02-0.38,0.04-0.76,0.06-1.13c0.09-0.42,0.09-0.84-0.09-1.25c-0.04-0.3-0.08-0.6-0.12-0.89c0.27-0.57,0.33-1.11-0.28-1.52
		c-0.05-0.38-0.1-0.76-0.15-1.14c0.1-0.55,0.12-1.09-0.15-1.61c0.03-0.06,0.02-0.12-0.02-0.18c0.01-0.4,0.02-0.8,0.03-1.19
		c0.27-0.57,0.29-1.1-0.28-1.52c-0.19-0.97,0-1.99-0.36-2.93c0-0.49,0-0.99,0-1.48c0.4-0.76,0.18-1.44-0.25-2.1
		c-0.04-0.18-0.08-0.36-0.13-0.54C217.41,325.57,217.41,325.45,217.4,325.32z"/>
	<path class="st5" d="M224.16,388.31c-0.05-0.39-0.11-0.78-0.16-1.17c0.59-0.53,0.24-0.89-0.22-1.23c-0.07-0.58-0.13-1.16-0.2-1.74
		c-0.03-0.15-0.05-0.3-0.08-0.45c-0.02-0.15-0.03-0.3-0.05-0.45c0.01-0.4,0.02-0.79,0.03-1.19c0.33-0.68,0.09-1.25-0.31-1.8
		c-0.11-0.78-0.23-1.56-0.34-2.35c0-0.4,0.01-0.79,0.01-1.19c0.3-0.47,0.27-0.89-0.2-1.23c-0.05-0.37-0.1-0.74-0.16-1.11
		c0.03-0.21,0.05-0.42,0.08-0.63c0.13-0.06,0.27-0.12,0.4-0.19c0.5,0.59,0.74,1.28,0.74,2.04c-0.01,1.68,0.42,3.34,0.47,4.96
		c0.08,2.61,0.99,5.13,0.73,7.75c-0.09,0.87,0.78,1.67,0.13,2.55c-0.23-0.08-0.46-0.15-0.69-0.22c-0.05-0.29-0.1-0.57-0.15-0.86
		c0.02-0.28,0.05-0.56,0.07-0.84C224.23,388.75,224.19,388.53,224.16,388.31z"/>
	<path class="st3" d="M214.25,293.56c0.22,0.08,0.45,0.17,0.67,0.25c0.15,1.17,0.3,2.34,0.44,3.51c-0.34,0.15-0.48,0.45-0.6,0.77
		c-0.06-0.05-0.13-0.09-0.19-0.14C214.47,296.49,214.36,295.03,214.25,293.56z"/>
	<path class="st3" d="M221.26,363.07c-0.06-0.8-0.39-1.58-0.18-2.4c0.28,0.06,0.56,0.12,0.84,0.18c-0.01,0.91-0.02,1.82-0.03,2.74
		c-0.11,0.63-0.21,1.26-0.32,1.89c-0.79-0.6-0.32-1.37-0.28-2.08C221.28,363.29,221.27,363.18,221.26,363.07z"/>
	<path class="st3" d="M216.53,316.49c-0.68-0.34-0.39-0.83-0.3-1.37c0.09-0.51-0.03-1.06-0.06-1.59c0.09-0.4,0.03-0.77-0.25-1.1
		c0.02-0.46,0.05-0.92,0.07-1.38c0.64,0.24,0.47,1,0.88,1.39c-0.01,0.51-0.02,1.02-0.03,1.53
		C216.29,314.75,216.96,315.69,216.53,316.49z"/>
	<path class="st3" d="M221.81,368.4c-0.02-0.7-0.32-1.38-0.13-2.09c0.28,0.06,0.55,0.12,0.83,0.18c-0.01,0.8-0.02,1.61-0.02,2.41
		c-0.51,0.68,0.17,1.5-0.24,2.19c-0.18-0.03-0.37-0.07-0.55-0.1c0.32-0.73,0.24-1.48,0.15-2.23
		C221.83,368.64,221.82,368.52,221.81,368.4z"/>
	<path class="st3" d="M219.29,344.05c0.24,0.15,0.47,0.31,0.71,0.46c0.14,1,0.28,2,0.42,3c-0.21,0.16-0.41,0.33-0.62,0.49
		c-0.06-0.04-0.13-0.08-0.19-0.13c-0.02-0.27-0.04-0.54-0.06-0.81c-0.02-0.11-0.03-0.23-0.05-0.34
		C219.47,345.82,219.09,344.96,219.29,344.05z"/>
	<path class="st3" d="M211.71,262.59c-0.43,0.81,0.31,1.73-0.22,2.54c-0.13-0.99-0.25-1.98-0.38-2.97c0.07-0.4,0.02-0.78-0.25-1.1
		c0.03-0.35,0.07-0.7,0.1-1.04c0.28,0.06,0.57,0.12,0.85,0.18C211.78,260.99,211.75,261.79,211.71,262.59z"/>
	<path class="st3" d="M224.34,390.66c0.23,0.07,0.46,0.15,0.69,0.22c0.1,0.99,0.08,1.99,0.44,2.94c-0.2,0.16-0.41,0.32-0.61,0.49
		c-0.06-0.05-0.13-0.09-0.19-0.14c-0.05-0.33-0.1-0.66-0.15-0.98c0,0,0-0.01,0-0.01C224.49,392.34,224.15,391.51,224.34,390.66z"/>
	<path class="st3" d="M215.76,310.13c-0.06-0.85-0.12-1.69-0.18-2.54c-0.05-0.21-0.11-0.43-0.16-0.64
		c-0.01-0.59-0.02-1.19-0.03-1.78c0.3,0.25,0.59,0.49,0.89,0.74c-0.01,1.01-0.02,2.01-0.03,3.02c-0.09,0.44-0.19,0.89-0.28,1.33
		C215.89,310.22,215.82,310.17,215.76,310.13z"/>
	<path class="st3" d="M219.86,350.89c0-0.5-0.01-0.99-0.01-1.49c0.28,0.24,0.57,0.48,0.85,0.72c0,1.12-0.01,2.23-0.01,3.35
		c-0.09,0.24-0.19,0.49-0.28,0.73c-0.06-0.05-0.13-0.1-0.19-0.15c-0.07-0.74-0.14-1.49-0.21-2.23
		C220.09,351.5,220.07,351.18,219.86,350.89z"/>
	<path class="st3" d="M215.16,303.91c-0.05-0.66-0.1-1.31-0.15-1.97c0.07-0.34,0.03-0.66-0.18-0.95c0-0.5,0-1,0-1.5
		c0.28,0.06,0.57,0.12,0.85,0.18c-0.14,1.1-0.12,2.19-0.01,3.29c-0.1,0.35-0.21,0.71-0.31,1.06
		C215.29,304,215.22,303.96,215.16,303.91z"/>
	<path class="st5" d="M216.53,316.49c0.43-0.8-0.24-1.74,0.32-2.52c0.84,1.3,0.67,2.73,0.53,4.15c-0.23-0.17-0.46-0.34-0.69-0.51
		C216.63,317.23,216.58,316.86,216.53,316.49z"/>
	<path class="st5" d="M222.25,371.09c0.4-0.69-0.28-1.51,0.24-2.19c0.95,1.19,0.62,2.55,0.53,3.87c-0.21-0.09-0.41-0.18-0.62-0.26
		c-0.08-0.17-0.15-0.33-0.23-0.5C222.19,371.71,222.22,371.4,222.25,371.09z"/>
	<path class="st3" d="M220.47,356.52c-0.01-0.49-0.02-0.99-0.03-1.48c0.29,0.15,0.59,0.3,0.88,0.46c-0.01,0.91-0.02,1.81-0.03,2.72
		c-0.11,0.47-0.22,0.93-0.33,1.4c-0.08-0.52-0.17-1.05-0.25-1.57C220.78,357.51,220.78,356.99,220.47,356.52z"/>
	<path class="st3" d="M216.68,317.61c0.23,0.17,0.46,0.34,0.69,0.51c-0.01,0.3-0.02,0.6-0.02,0.9c-0.46,1.11,0.17,2.27-0.16,3.38
		c-0.18-0.03-0.36-0.07-0.55-0.1c-0.06-1.14,0.43-2.27,0.05-3.41c-0.04-0.22-0.08-0.44-0.12-0.65
		C216.61,318.02,216.65,317.82,216.68,317.61z"/>
	<path class="st5" d="M226.13,406.06c-0.04-0.29-0.07-0.58-0.11-0.86c0.08-0.52,0.16-1.04,0.24-1.56c1.12,0.92,0.66,2.13,0.62,3.26
		C226.67,406.58,226.54,406.19,226.13,406.06z"/>
	<path class="st3" d="M226.26,403.63c-0.08,0.52-0.16,1.04-0.24,1.56c-0.11-0.76-0.22-1.53-0.34-2.29c0.06-0.34,0.01-0.66-0.21-0.94
		c0.01-0.4,0.03-0.8,0.04-1.2c0.49,0.17,0.52,0.72,0.84,1.03C226.32,402.4,226.29,403.02,226.26,403.63z"/>
	<path class="st5" d="M215.97,310.26c0.09-0.44,0.19-0.89,0.28-1.33c1.05,1.02,0.51,2.32,0.62,3.51c-0.41-0.39-0.24-1.15-0.88-1.39
		c-0.06-0.12-0.12-0.24-0.18-0.36C215.86,310.54,215.91,310.4,215.97,310.26z"/>
	<path class="st5" d="M226.35,401.79c-0.32-0.31-0.35-0.86-0.84-1.03c-0.03-0.25-0.05-0.51-0.08-0.76c0.07-0.48,0.15-0.96,0.22-1.43
		C226.45,399.52,226.74,400.58,226.35,401.79z"/>
	<path class="st3" d="M225.66,398.57c-0.07,0.48-0.15,0.96-0.22,1.43c-0.08-0.53-0.17-1.05-0.25-1.58c0.05-0.43,0.01-0.85-0.25-1.22
		c-0.01-0.5-0.02-0.99-0.03-1.49c0.61,0.24,0.49,0.94,0.85,1.33C225.73,397.55,225.69,398.06,225.66,398.57z"/>
	<path class="st5" d="M222.51,366.49c-0.28-0.06-0.55-0.12-0.83-0.18c-0.03-0.28-0.07-0.55-0.1-0.83c0.11-0.63,0.21-1.26,0.32-1.89
		C222.96,364.37,222.38,365.5,222.51,366.49z"/>
	<path class="st5" d="M211.82,260.19c-0.28-0.06-0.57-0.12-0.85-0.18c-0.02-0.18-0.04-0.36-0.06-0.54c0.39-0.7-0.19-1.53,0.3-2.22
		C211.96,258.12,211.84,259.17,211.82,260.19z"/>
	<path class="st3" d="M226.13,406.06c0.41,0.13,0.54,0.52,0.75,0.84c0.02,0.5,0.04,1,0.06,1.5c-0.09,0.32-0.18,0.65-0.28,0.97
		c-0.1-0.01-0.21-0.02-0.31-0.02c0-0.19,0.01-0.38,0.01-0.57c-0.02-0.18-0.03-0.35-0.05-0.53c0.06-0.5,0.03-0.98-0.31-1.39
		C226.04,406.59,226.09,406.32,226.13,406.06z"/>
	<path class="st5" d="M225.76,397.04c-0.36-0.39-0.25-1.09-0.85-1.33c-0.05-0.19-0.09-0.38-0.14-0.57c0.03-0.28,0.06-0.56,0.08-0.84
		c0.2-0.16,0.41-0.32,0.61-0.49C225.61,394.89,226.25,395.91,225.76,397.04z"/>
	<path class="st5" d="M220.96,359.62c0.11-0.47,0.22-0.93,0.33-1.4c0.85,0.73,0.6,1.71,0.62,2.63c-0.28-0.06-0.56-0.12-0.84-0.18
		C221.04,360.32,221,359.97,220.96,359.62z"/>
	<path class="st5" d="M220.7,350.13c-0.28-0.24-0.57-0.48-0.85-0.72c-0.05-0.29-0.1-0.58-0.14-0.88c0.03-0.18,0.06-0.36,0.09-0.54
		c0.21-0.16,0.41-0.32,0.62-0.49C220.52,348.38,221.12,349.2,220.7,350.13z"/>
	<path class="st5" d="M215.36,304.03c0.1-0.35,0.21-0.7,0.31-1.06c0.59,0.89,0.67,1.9,0.61,2.93c-0.3-0.25-0.59-0.49-0.89-0.74
		c-0.05-0.29-0.11-0.59-0.16-0.88C215.3,304.21,215.34,304.13,215.36,304.03z"/>
	<path class="st5" d="M215.68,299.68c-0.28-0.06-0.57-0.12-0.85-0.18c-0.06-0.39-0.11-0.77-0.17-1.16c0.06-0.08,0.09-0.16,0.11-0.26
		c0.12-0.32,0.25-0.63,0.6-0.77C215.71,298.08,215.72,298.88,215.68,299.68z"/>
	<path class="st5" d="M221.32,355.5c-0.29-0.15-0.59-0.3-0.88-0.46c-0.04-0.09-0.08-0.19-0.12-0.28c0.03-0.18,0.06-0.37,0.09-0.55
		c0.09-0.24,0.19-0.49,0.28-0.73C221.51,353.96,221.31,354.76,221.32,355.5z"/>
	<path class="st3" d="M222.39,372.52c0.21,0.09,0.41,0.17,0.62,0.26c-0.02,0.27-0.03,0.54-0.05,0.8c-0.14,0.06-0.27,0.12-0.4,0.18
		c-0.07-0.04-0.14-0.08-0.21-0.11C222.36,373.27,222.38,372.89,222.39,372.52z"/>
	<path class="st5" d="M226.66,409.37c0.09-0.32,0.18-0.65,0.28-0.97c0.3,0.27,0.56,0.57,0.65,0.98
		C227.28,409.38,226.97,409.37,226.66,409.37z"/>
	<path class="st4" d="M219.59,409.02c-2.57-0.25-4.98-0.99-7.21-2.29C214.78,407.49,217.25,408.05,219.59,409.02z"/>
	<path class="st4" d="M226.37,408.77c0,0.19-0.01,0.38-0.01,0.57c-0.31,0.04-0.61,0.07-0.92,0.11c-1.15-0.34-2.37,0.09-3.51-0.33
		C223.37,408.53,224.9,409.06,226.37,408.77z"/>
	<path class="st3" d="M221.92,409.13c1.14,0.42,2.36-0.01,3.51,0.33c-1.6,0.36-3.18,0.55-4.71-0.26
		C221.12,409.17,221.52,409.15,221.92,409.13z"/>
	<path class="st4" d="M212.18,406.67c-1.38-0.53-2.64-1.27-3.72-2.29C209.81,404.97,211.18,405.52,212.18,406.67z"/>
	<path class="st4" d="M202.96,398.66c-0.72-0.75-1.19-1.64-1.53-2.62C202.27,396.72,202.76,397.6,202.96,398.66z"/>
	<path class="st3" d="M217.54,326.23c0.43,0.66,0.65,1.34,0.25,2.1c-0.18-0.03-0.37-0.06-0.55-0.1
		C217.34,327.57,217.44,326.9,217.54,326.23z"/>
	<path class="st3" d="M218.16,332.75c0.57,0.42,0.54,0.95,0.28,1.52c-0.19-0.04-0.39-0.08-0.58-0.11
		C217.95,333.69,218.05,333.22,218.16,332.75z"/>
	<path class="st3" d="M222.63,375.5c0.48,0.34,0.5,0.76,0.2,1.23c-0.18-0.03-0.36-0.06-0.55-0.09
		C222.24,376.21,222.42,375.85,222.63,375.5z"/>
	<path class="st3" d="M211.9,268.63c0.23,0.8,0.63,1.59,0.19,2.44C211.76,270.28,211.81,269.46,211.9,268.63z"/>
	<path class="st3" d="M223.17,380.27c0.4,0.55,0.64,1.13,0.31,1.8c-0.19-0.04-0.39-0.07-0.58-0.11
		C223.38,381.46,222.93,380.81,223.17,380.27z"/>
	<path class="st4" d="M220.47,356.52c0.31,0.47,0.3,0.99,0.24,1.52C220.02,357.63,220.18,357.09,220.47,356.52z"/>
	<path class="st3" d="M218.73,338.39c0.61,0.41,0.56,0.94,0.28,1.52c-0.1-0.02-0.2-0.04-0.3-0.05
		C218.71,339.37,218.72,338.88,218.73,338.39z"/>
	<path class="st3" d="M213.1,281.68c0.59,0.45,0.57,0.97,0.2,1.55C212.99,282.74,213,282.21,213.1,281.68z"/>
	<path class="st3" d="M213.68,287.62c0.6,0.44,0.58,0.96,0.21,1.54C213.58,288.67,213.58,288.15,213.68,287.62z"/>
	<path class="st4" d="M217.24,328.24c0.18,0.03,0.37,0.06,0.55,0.1c0,0.49,0,0.99,0,1.48C217.01,329.5,217.2,328.84,217.24,328.24z"
		/>
	<path class="st3" d="M223.78,385.9c0.46,0.34,0.8,0.7,0.22,1.23C223.69,386.76,223.68,386.34,223.78,385.9z"/>
	<path class="st4" d="M226,406.85c0.35,0.41,0.37,0.89,0.31,1.39C225.83,407.86,225.83,407.38,226,406.85z"/>
	<path class="st4" d="M224.94,397.2c0.26,0.37,0.3,0.78,0.25,1.22C224.62,398.11,224.62,397.69,224.94,397.2z"/>
	<path class="st4" d="M222.29,376.64c0.18,0.03,0.36,0.06,0.55,0.09c0,0.4-0.01,0.79-0.01,1.19
		C222.17,377.69,222.23,377.17,222.29,376.64z"/>
	<path class="st3" d="M211.6,265.95c0.53,0.31,0.51,0.74,0.24,1.22c-0.09-0.01-0.18-0.01-0.28-0.01
		C211.57,266.76,211.58,266.35,211.6,265.95z"/>
	<path class="st4" d="M217.85,334.16c0.19,0.04,0.39,0.08,0.58,0.11c-0.01,0.4-0.02,0.8-0.03,1.19
		C217.76,335.22,217.77,334.7,217.85,334.16z"/>
	<path class="st4" d="M222.9,381.97c0.19,0.04,0.39,0.07,0.58,0.11c-0.01,0.4-0.02,0.79-0.03,1.19
		C222.81,383.02,222.82,382.51,222.9,381.97z"/>
	<path class="st4" d="M218.71,339.86c0.1,0.02,0.2,0.04,0.3,0.05c0.04,0.3,0.08,0.6,0.12,0.89c-0.05,0.2-0.11,0.4-0.16,0.6
		C218.14,341.01,218.63,340.4,218.71,339.86z"/>
	<path class="st4" d="M208,404.03c-0.51-0.07-0.76-0.47-1.07-0.8C207.47,403.24,207.83,403.5,208,404.03z"/>
	<path class="st4" d="M222.25,371.09c-0.03,0.31-0.05,0.62-0.08,0.92c-0.5-0.18-0.54-0.58-0.47-1.02
		C221.88,371.03,222.07,371.06,222.25,371.09z"/>
	<path class="st4" d="M225.47,401.96c0.22,0.28,0.27,0.6,0.21,0.94C225.29,402.66,225.23,402.35,225.47,401.96z"/>
	<path class="st4" d="M210.41,255.86c0.22,0.28,0.24,0.6,0.18,0.94C210.18,256.55,210.12,256.24,210.41,255.86z"/>
	<path class="st4" d="M219.86,350.89c0.21,0.29,0.23,0.61,0.15,0.94C219.63,351.57,219.61,351.25,219.86,350.89z"/>
	<path class="st4" d="M210.87,261.06c0.27,0.32,0.33,0.7,0.25,1.1C210.75,261.86,210.71,261.48,210.87,261.06z"/>
	<path class="st4" d="M214.83,301c0.21,0.29,0.25,0.61,0.18,0.95C214.61,301.7,214.56,301.38,214.83,301z"/>
	<path class="st4" d="M211.56,267.16c0.09,0,0.18,0,0.28,0.01c-0.02,0.31-0.05,0.61-0.07,0.92
		C211.35,267.85,211.29,267.54,211.56,267.16z"/>
	<path class="st3" d="M212.55,276.03c0.41,0.27,0.44,0.6,0.13,0.96C212.44,276.7,212.44,276.37,212.55,276.03z"/>
	<path class="st4" d="M215.92,312.43c0.27,0.32,0.33,0.69,0.25,1.1C215.79,313.23,215.76,312.85,215.92,312.43z"/>
	<path class="st4" d="M216.65,322.3c0.18,0.03,0.36,0.07,0.55,0.1c-0.03,0.31-0.05,0.62-0.08,0.93
		C216.62,323.14,216.58,322.74,216.65,322.3z"/>
	<path class="st4" d="M203.55,399.55c-0.19-0.29-0.38-0.57-0.58-0.86C203.38,398.83,203.55,399.13,203.55,399.55z"/>
	<path class="st4" d="M218.43,335.64c0.27,0.52,0.25,1.06,0.15,1.61C218.31,336.74,218.31,336.19,218.43,335.64z"/>
	<path class="st3" d="M212.25,272.17c0.31,0.15,0.34,0.37,0.15,0.64c-0.09-0.01-0.18-0.01-0.27-0.01
		C212.17,272.59,212.21,272.38,212.25,272.17z"/>
	<path class="st3" d="M217.31,323.54c0.31,0.17,0.34,0.4,0.12,0.67C217.26,324,217.2,323.78,217.31,323.54z"/>
	<path class="st4" d="M215.42,306.95c0.05,0.21,0.11,0.43,0.16,0.64C215.3,307.43,215.21,307.23,215.42,306.95z"/>
	<path class="st4" d="M212.14,272.8c0.09,0,0.18,0,0.27,0.01c-0.03,0.21-0.06,0.42-0.09,0.63
		C212.01,273.3,211.94,273.09,212.14,272.8z"/>
	<path class="st4" d="M219.21,342.05c-0.02,0.38-0.04,0.76-0.06,1.13c-0.23-0.4-0.22-0.82-0.15-1.25
		C219.08,341.97,219.14,342.01,219.21,342.05z"/>
	<path class="st3" d="M219.21,342.05c-0.07-0.04-0.14-0.08-0.21-0.12c-0.01-0.18-0.03-0.35-0.04-0.53c0.05-0.2,0.11-0.4,0.16-0.6
		C219.3,341.21,219.3,341.63,219.21,342.05z"/>
	<path class="st4" d="M216.58,318.23c0.04,0.22,0.08,0.44,0.12,0.65C216.44,318.71,216.38,318.49,216.58,318.23z"/>
	<path class="st4" d="M222.34,373.65c0.07,0.04,0.14,0.07,0.21,0.11c-0.03,0.21-0.05,0.42-0.08,0.63
		C222.07,374.21,222.2,373.93,222.34,373.65z"/>
	<path class="st3" d="M214.07,290.62c0.17,0.29,0.18,0.61,0.11,0.93c-0.07-0.04-0.14-0.08-0.21-0.12
		C214,291.16,214.04,290.89,214.07,290.62z"/>
	<path class="st4" d="M213.97,291.43c0.07,0.04,0.14,0.08,0.21,0.12c-0.03,0.29-0.05,0.57-0.08,0.86
		C213.92,292.11,213.9,291.78,213.97,291.43z"/>
	<path class="st4" d="M224.26,388.97c-0.02,0.28-0.05,0.56-0.07,0.84c-0.18-0.29-0.2-0.61-0.14-0.94
		C224.12,388.89,224.19,388.93,224.26,388.97z"/>
	<path class="st4" d="M224.86,394.31c-0.03,0.28-0.06,0.56-0.08,0.84c-0.18-0.31-0.18-0.64-0.11-0.97
		C224.73,394.22,224.79,394.26,224.86,394.31z"/>
	<path class="st4" d="M213.43,285.29c0.03,0.3,0.06,0.59,0.08,0.89C213.3,285.9,213.27,285.6,213.43,285.29z"/>
	<path class="st4" d="M217.4,325.32c0.01,0.12,0.01,0.25,0.02,0.38C217.14,325.59,217.09,325.46,217.4,325.32z"/>
	<path class="st4" d="M221.81,368.4c0.01,0.12,0.03,0.24,0.04,0.36C221.67,368.66,221.58,368.55,221.81,368.4z"/>
	<path class="st3" d="M224.26,388.97c-0.07-0.04-0.14-0.07-0.22-0.11c0.04-0.18,0.07-0.37,0.11-0.55
		C224.19,388.53,224.23,388.75,224.26,388.97z"/>
	<path class="st4" d="M221.26,363.07c0.01,0.11,0.03,0.22,0.04,0.33C221.14,363.31,221.03,363.21,221.26,363.07z"/>
	<path class="st4" d="M219.5,346.71c0.02,0.11,0.03,0.23,0.05,0.34C219.32,346.97,219.23,346.86,219.5,346.71z"/>
	<path class="st4" d="M219.8,347.99c-0.03,0.18-0.06,0.36-0.09,0.54c-0.03-0.22-0.06-0.44-0.1-0.66
		C219.67,347.91,219.74,347.95,219.8,347.99z"/>
	<path class="st4" d="M220.41,354.21c-0.03,0.18-0.06,0.37-0.09,0.55c-0.03-0.23-0.07-0.46-0.1-0.7
		C220.28,354.11,220.35,354.16,220.41,354.21z"/>
	<polygon class="st4" points="224.51,393.18 224.51,393.19 224.42,393.19 	"/>
	<path class="st4" d="M215.97,310.26c-0.05,0.14-0.11,0.28-0.16,0.43c-0.02-0.19-0.04-0.37-0.05-0.56
		C215.82,310.17,215.89,310.22,215.97,310.26z"/>
	<path class="st4" d="M201.43,396.05c-0.06-0.11-0.12-0.22-0.18-0.33C201.31,395.83,201.37,395.94,201.43,396.05z"/>
	<path class="st4" d="M215.36,304.03c-0.02,0.09-0.06,0.18-0.13,0.25c-0.03-0.12-0.05-0.25-0.08-0.37
		C215.22,303.96,215.29,304,215.36,304.03z"/>
	<path class="st4" d="M223.5,383.71c0.03,0.15,0.05,0.3,0.08,0.45C223.55,384.01,223.52,383.86,223.5,383.71z"/>
	<path class="st3" d="M220.17,409.15c-0.11-0.01-0.22-0.02-0.33-0.03C219.95,409.13,220.06,409.14,220.17,409.15z"/>
	<path class="st4" d="M214.77,298.09c-0.02,0.09-0.05,0.18-0.11,0.26c-0.03-0.13-0.06-0.26-0.08-0.39
		C214.64,298,214.7,298.05,214.77,298.09z"/>
	<path class="st5" d="M367.41,393.23c-0.06,0.23-0.13,0.46-0.19,0.69C367.29,393.69,367.35,393.46,367.41,393.23z"/>
	<path class="st4" d="M269.74,408.19c0.09,0.31,0.18,0.62,0.27,0.93c-0.33,0.25-0.71,0.32-1.11,0.32c-4.49,0-8.99,0-13.48-0.01
		c-0.24,0-0.48-0.1-0.72-0.15c-0.01-0.17-0.01-0.35-0.02-0.52c4.55,0.03,9.1,0.05,13.65,0.09
		C268.91,408.85,269.39,408.66,269.74,408.19z"/>
	<path class="st3" d="M268.06,346.4c0.78,1.59,0.61,3.21,0.16,4.84C267.85,349.64,267.95,348.02,268.06,346.4z"/>
	<path class="st3" d="M268.63,367.19c0.86,1.55,0.52,3.17,0.26,4.79c-0.1,0-0.19-0.01-0.29-0.03
		C268.67,370.37,268.38,368.78,268.63,367.19z"/>
	<path class="st3" d="M269.2,385.61c0.94,1.4,0.46,2.89,0.3,4.36c-0.11-0.07-0.21-0.13-0.32-0.2
		C269.19,388.38,269.2,386.99,269.2,385.61z"/>
	<path class="st3" d="M267.5,327.1c0.65,1.1,0.59,2.22,0.11,3.36C267.32,329.35,267.38,328.23,267.5,327.1z"/>
	<path class="st4" d="M269.18,389.77c0.11,0.07,0.21,0.13,0.32,0.2c0.01,0.24,0.02,0.49,0.02,0.73c-0.08,0.4-0.15,0.81-0.23,1.21
		C268.73,391.23,268.83,390.51,269.18,389.77z"/>
	<path class="st4" d="M267.08,316.15c0.29,0.7,0.24,1.41,0.13,2.13C266.66,317.6,266.72,316.88,267.08,316.15z"/>
	<path class="st4" d="M267.95,337.54c0.01,0.4,0.02,0.79,0.02,1.19c-0.04,0.11-0.09,0.22-0.13,0.33c-0.63-0.66-0.5-1.39-0.16-2.12
		c0.09,0,0.17,0.01,0.26,0.02C267.94,337.15,267.95,337.35,267.95,337.54z"/>
	<path class="st4" d="M269.71,398.16c-0.02,1.17-0.05,2.34-0.07,3.52c-0.36-1.21-0.21-2.43-0.12-3.65
		C269.58,398.07,269.64,398.12,269.71,398.16z"/>
	<path class="st3" d="M269.71,398.16c-0.06-0.05-0.13-0.09-0.19-0.13c0.1-1.21-0.23-2.43,0.1-3.64
		C269.86,395.64,269.81,396.9,269.71,398.16z"/>
	<path class="st4" d="M269.11,378.86c-0.02,1.08-0.04,2.15-0.06,3.23c-0.36-1.1-0.22-2.22-0.15-3.34
		C268.97,378.78,269.04,378.82,269.11,378.86z"/>
	<path class="st4" d="M268.59,371.95c0.1,0.02,0.19,0.03,0.29,0.03c-0.06,0.51-0.11,1.02-0.17,1.52
		C268.19,373.03,268.28,372.5,268.59,371.95z"/>
	<path class="st3" d="M267.94,336.95c-0.09-0.01-0.17-0.02-0.26-0.02c0.04-0.51,0.09-1.01,0.13-1.52
		C268.31,335.89,268.23,336.41,267.94,336.95z"/>
	<path class="st4" d="M268.36,358.87c0.17,0.42,0.17,0.85,0.04,1.28C267.95,359.74,267.94,359.31,268.36,358.87z"/>
	<path class="st3" d="M268.03,344.65c0.22,0.3,0.23,0.61,0.02,0.92C268.04,345.26,268.04,344.95,268.03,344.65z"/>
	<path class="st3" d="M267.48,325.65c0.21,0.3,0.22,0.6,0.01,0.91C267.49,326.25,267.48,325.95,267.48,325.65z"/>
	<path class="st3" d="M269.11,378.86c-0.07-0.04-0.14-0.08-0.21-0.11c0.05-0.22,0.11-0.44,0.16-0.66
		C269.08,378.34,269.1,378.6,269.11,378.86z"/>
	<path class="st3" d="M318.7,325.93c0.42,1.04,0.56,2.06-0.17,3.03C318.41,327.94,318.34,326.93,318.7,325.93z"/>
	<path class="st3" d="M319.4,316.15c0.24,1.04,0.51,2.08-0.3,3.01c0-0.99-0.01-1.98-0.01-2.97
		C319.19,316.18,319.29,316.17,319.4,316.15z"/>
	<path class="st4" d="M315.48,381.47c0.02,1.01,0.11,2.02-0.29,2.99C315.05,383.44,314.44,382.38,315.48,381.47z"/>
	<path class="st3" d="M318.12,336.3c0.44,0.76,0.46,1.48-0.15,2.17C317.86,337.74,317.82,337.01,318.12,336.3z"/>
	<path class="st4" d="M317.13,352.05c0.09,0.52,0.12,1.04-0.18,1.52C316.65,353.02,316.61,352.5,317.13,352.05z"/>
	<path class="st4" d="M314.75,393.02c0.13,0.53,0.13,1.05-0.13,1.55C314.29,394.02,314.24,393.49,314.75,393.02z"/>
	<path class="st4" d="M315.96,372.54c0.09,0.53,0.11,1.05-0.19,1.53C315.47,373.51,315.42,372.99,315.96,372.54z"/>
	<path class="st4" d="M316.53,362.44c0.11,0.53,0.12,1.05-0.16,1.54C316.06,363.43,316.02,362.9,316.53,362.44z"/>
	<path class="st4" d="M317.88,342.27c-0.11,0.4-0.22,0.81-0.34,1.21c-0.3-0.56-0.36-1.08,0.2-1.52
		C317.79,342.06,317.84,342.16,317.88,342.27z"/>
	<path class="st4" d="M319.53,310.5c0.02,0.68,0.04,1.36,0.06,2.04c-0.07,0.04-0.14,0.08-0.21,0.12
		C319.3,311.93,319.23,311.2,319.53,310.5z"/>
	<path class="st4" d="M318.26,332.44c0.11,0.33,0.09,0.65-0.08,0.95C317.91,333.05,317.94,332.73,318.26,332.44z"/>
	<path class="st4" d="M315.13,390.63c-0.07,0.04-0.13,0.08-0.2,0.12c-0.08-0.62-0.14-1.25,0.13-1.85
		C315.08,389.48,315.1,390.05,315.13,390.63z"/>
	<path class="st4" d="M315.64,378.21c0.03,0.48,0.05,0.95,0.08,1.43c-0.06,0.05-0.13,0.1-0.19,0.14
		C315.45,379.25,315.4,378.72,315.64,378.21z"/>
	<path class="st4" d="M316.63,360.67c-0.01,0.22-0.02,0.43-0.03,0.65C316.17,361.08,316.24,360.87,316.63,360.67z"/>
	<path class="st4" d="M319.78,305.72c-0.03,0.22-0.06,0.44-0.09,0.66C319.47,306.13,319.5,305.9,319.78,305.72z"/>
	<path class="st4" d="M318.88,322.35c-0.01,0.23-0.03,0.46-0.04,0.69C318.54,322.79,318.58,322.56,318.88,322.35z"/>
	<path class="st4" d="M322.13,267.71c-0.03,0.22-0.07,0.44-0.1,0.66C321.82,268.11,321.87,267.89,322.13,267.71z"/>
	<path class="st4" d="M316.17,367.36c0.05,0.43,0.1,0.87,0.15,1.3c-0.07,0.04-0.13,0.09-0.2,0.14
		C316.14,368.32,316.16,367.84,316.17,367.36z"/>
	<path class="st3" d="M319.38,312.66c0.07-0.03,0.14-0.07,0.21-0.12c-0.02,0.46-0.05,0.93-0.07,1.39
		C319.47,313.51,319.43,313.08,319.38,312.66z"/>
	<path class="st4" d="M316.06,371.09c-0.01,0.2-0.02,0.41-0.04,0.61C315.63,371.47,315.72,371.27,316.06,371.09z"/>
	<path class="st4" d="M319.4,316.15c-0.1,0.01-0.21,0.03-0.31,0.04c-0.2-0.28-0.19-0.51,0.15-0.67
		C319.29,315.73,319.34,315.94,319.4,316.15z"/>
	<path class="st4" d="M316.78,356.37c0.06,0.35,0.11,0.7,0.17,1.05c-0.08,0.03-0.15,0.06-0.22,0.1
		C316.74,357.14,316.76,356.76,316.78,356.37z"/>
	<path class="st4" d="M317.19,350.86c0,0.12-0.01,0.24-0.01,0.37C316.92,351.1,316.95,350.98,317.19,350.86z"/>
	<path class="st4" d="M321.85,271.33c0.05,0.19,0.09,0.38,0.14,0.58c-0.08,0.03-0.15,0.06-0.22,0.1
		C321.8,271.78,321.82,271.56,321.85,271.33z"/>
	<path class="st3" d="M319.06,320c0.02,0.08,0.05,0.16,0.06,0.23c0,0.03-0.05,0.07-0.07,0.1C319.05,320.22,319.05,320.11,319.06,320
		z"/>
</g>
<path class="st6" d="M229.81,503.05c0,10.79-0.05,21.57,0.05,32.36c0.02,2.11-0.59,2.73-2.7,2.61c-3.57-0.2-7.15-0.05-10.73-0.08
	c-1.33-0.01-2.72,0.54-3.62-1.28c-0.5-1-1.38,0.22-1.98,0.58c-7.09,4.22-17.72,3.57-23.59-1.64c-5.13-4.55-7.49-10.61-8.88-17.13
	c-1.92-9.04-1.17-18.19-0.85-27.29c0.24-6.65-0.29-13.26-0.24-19.89c0.02-2.53,0.83-3.39,3.24-3.4c4.32-0.01,8.65-0.17,12.97-0.31
	c1.71-0.06,2.29,0.6,2.23,2.36c-0.37,9.67-0.74,19.33-0.03,29.02c0.35,4.78-0.47,9.6,0.27,14.41c0.49,3.15,0.85,6.35,4.23,7.87
	c3.73,1.67,7.13,0.34,10.45-1.38c0.81-0.42,0.84-1.12,0.83-1.89c-0.14-9.05,0.52-18.06,0.88-27.09c0.24-6.2-1.11-12.37-0.95-18.6
	c0.1-4.17,0.48-4.72,4.58-4.37c3.41,0.29,6.79,0.48,10.21,0.07c2.18-0.26,3.06,0.62,3.04,3c-0.13,10.7-0.05,21.4-0.05,32.1
	C229.36,503.05,229.59,503.05,229.81,503.05z"/>
<path class="st6" d="M132.54,511.09c-0.32,8.45-1.05,16.65-0.18,24.83c0.15,1.39-0.6,1.86-1.69,1.9c-3.57,0.12-7.15,0.14-10.73,0.19
	c-0.97,0.01-1.42-0.31-1.49-1.45c-0.57-9.68-0.74-19.37-0.37-29.05c0.52-13.77,0.37-27.54,0.37-41.31c0-4.98-0.29-9.95-0.02-14.93
	c0.11-2.06,0.78-2.92,2.92-2.35c2.53,0.67,5.13,0.34,7.69,0.25c2.02-0.07,2.46,0.64,2.54,2.57c0.61,14.44-0.15,28.87,0.02,43.3
	c0.01,1.04-0.22,2.15,0.41,3.16c1.1-0.24,1.61-1.16,2.26-1.86c7.85-8.35,15.39-16.99,23.49-25.11c2.23-2.24,4.53-3.87,7.87-3.34
	c0.66,0.1,1.39,0,1.74,0.71c0.37,0.76-0.24,1.26-0.68,1.72c-3.58,3.81-7.24,7.55-10.78,11.41c-4.88,5.33-9.43,10.96-14.64,15.98
	c-1.37,1.32-0.63,2.03,0.26,3.03c9.91,11.07,19.81,22.17,29.7,33.26c0.49,0.55,1.01,1.13,1.31,1.78c0.43,0.93,0.2,1.6-1.02,1.64
	c-4.57,0.14-9.14,0.34-13.72,0.45c-2,0.05-3.4-1.14-4.6-2.59c-3.24-3.89-6.42-7.83-9.71-11.68
	C139.89,519.39,136.2,515.26,132.54,511.09z"/>
<path class="st6" d="M262.18,538.92c-7.56,0.59-13.88-2.85-19.67-7.55c-1.96-1.59-1.37-5.26,0.89-6.45c1.1-0.58,1.86,0.06,2.64,0.74
	c7.87,6.86,16.48,7.86,26.08,3.82c5.75-2.43,8.47-13.72,2.12-18.01c-4.35-2.93-8.87-5.5-13.44-8.05c-4.73-2.64-9.29-5.54-13.03-9.5
	c-9.92-10.51-8.19-26.63,3.69-34.87c8.2-5.69,17.19-6.94,26.82-4.81c5.13,1.14,8.63,4.77,12.48,7.87c0.9,0.73,0.95,1.68,0.19,2.63
	c-0.46,0.58-0.89,1.2-1.29,1.83c-1.18,1.9-2.5,2.02-4.31,0.67c-4.21-3.13-8.62-6.08-13.98-6.67c-7.99-0.88-15.79,2.27-17.67,9.48
	c-1.1,4.23-0.42,8.12,2.73,11.27c3.24,3.25,6.96,5.89,11.3,7.55c3.95,1.51,7.85,3.13,11.57,5.18c12.54,6.93,16.57,24.79,8.09,35.77
	c-2.73,3.53-6.63,5.11-10.6,6.62c-2.32,0.88-4.72,1.45-7.16,1.94C267.25,538.87,264.85,538.88,262.18,538.92z"/>
<path class="st6" d="M386.42,472.01c4.64-2.57,9.17-4.57,14.08-5.57c0.73-0.15,1.47-0.24,2.21-0.37c1.97-0.35,2.9,0.43,3.56,2.39
	c1.53,4.54,1.68,9.29,2.4,13.94c0.34,2.18-1.1,3.55-4.02,4.13c-2.27,0.45-4.59,0.65-6.87,1.07c-3.02,0.56-6.01,1.35-9.04,1.82
	c-1.73,0.27-2.05,1.05-2,2.63c0.47,13.76,0.61,27.53,0.5,41.3c-0.01,0.91-0.02,1.83-0.12,2.73c-0.18,1.66-1.01,2.6-2.81,2.27
	c-4.87-0.89-9.79-0.38-14.68-0.41c-2.01-0.01-2.55-0.76-2.56-2.64c-0.12-15.6,0.88-31.16,1.46-46.73
	c0.22-5.88,0.17-11.78,0.13-17.67c-0.02-2.29,0.63-3.39,3.16-3.08c3.39,0.41,6.81,0.21,10.22,0.07
	C386.09,467.72,386.09,467.73,386.42,472.01z"/>
<path class="st6" d="M443.71,511.32c-6.91,0-13.81,0.05-20.72-0.04c-1.72-0.02-2.18,0.22-1.92,2.14c0.78,5.65,2.41,10.84,6.94,14.63
	c8.73,7.28,24.44,5.12,30.8-4.31c1.29-1.92,2.16-1.97,3.84-0.58c4.34,3.59,4.4,3.54,0.31,7.51c-12.35,12-30.47,10.13-39.65,3.35
	c-4.05-2.99-6.34-7.23-7.79-11.83c-3.91-12.39-5.01-24.9,0.2-37.2c3.52-8.31,9.15-14.95,18.08-17.74
	c12.27-3.83,22.77,1.34,28.31,13.43c4.13,9.01,5.01,18.63,5.5,28.34c0.12,2.28-1.35,2.36-2.93,2.3
	C457.68,511.06,450.7,511.22,443.71,511.32z M437.14,503.4c6.64,0,13.28,0.2,19.91-0.43c1.34-0.13,2.42-0.12,2.16-2.05
	c-0.98-7.26-2.64-14.32-6.26-20.75c-4-7.12-10.04-8.8-17.28-4.94c-1.16,0.62-2.29,1.36-3.29,2.22
	c-7.37,6.38-10.48,14.81-11.59,24.19c-0.19,1.57,0.65,1.78,1.91,1.78C427.51,503.39,432.32,503.4,437.14,503.4z"/>
<path class="st6" d="M351.64,501.93c-0.43,9.61-0.84,19.2-0.41,28.83c0.42,9.35-0.77,6.8-8.31,7.12c-0.31,0.01-0.83-0.1-0.9-0.29
	c-1.01-2.81-2.89-1.25-4.43-0.85c-8.49,2.25-17.03,3.72-25.78,1.67c-8-1.87-11.71-6.41-11.81-14.56c-0.04-2.91,1.47-5.2,3.88-6.85
	c4.01-2.75,8.62-3.95,13.32-4.43c7.52-0.76,15.08-1.15,22.62-1.65c1.06-0.07,1.99,0.06,1.84-1.51c-0.77-7.96-0.6-16.05-2.91-23.81
	c-1.39-4.64-3.57-8.63-9.1-9.27c-2.64-0.3-5.09,0.44-7.4,1.61c-3.72,1.88-7,4.44-10.35,6.87c-0.81,0.58-1.59,1.22-2.48,1.66
	c-1.28,0.64-2.37,0.52-2.98-1.05c-0.75-1.95-1.19-3.97-1.56-6.01c-0.17-0.93,0.19-1.64,0.9-2.17c7.45-5.53,14.97-10.89,24.9-10.64
	c3.33,0.09,6.63,0.33,9.8,1.56c5.24,2.04,7.7,6.31,9.2,11.33C351.85,486.84,351.99,494.37,351.64,501.93z M321.25,531.89
	c4.6,0.26,9.54-0.71,14.43-2c5.69-1.5,5.93-1.84,5.97-7.66c0.01-1.24-0.06-2.49,0.04-3.73c0.09-1.24-0.47-1.48-1.59-1.57
	c-5.98-0.52-11.96-0.37-17.93,0.06c-3.26,0.23-6.38,1.2-9.06,3.16c-2.59,1.89-3.4,4.61-2.44,7.7c0.83,2.69,2.66,3.92,6.1,4.04
	C318.08,531.93,319.41,531.89,321.25,531.89z"/>
<path class="st6" d="M97.2,504.67c-0.07-16.25,1.77-32.47,1.37-48.72c-0.05-2.07,0.86-3.11,2.99-2.97c0.83,0.05,1.66,0.1,2.49,0.08
	c1.97-0.04,2.68,0.95,2.43,2.81c-1.32,9.89-0.72,19.86-1.28,29.78c-0.86,15.23-0.68,30.49-0.05,45.73c0.05,1.15,0.14,2.31,0.29,3.46
	c0.33,2.57-0.55,3.72-3.12,4c-5.08,0.54-5.14,0.46-5.13-4.58C97.21,524.4,97.2,514.53,97.2,504.67z"/>
<rect x="29.86" y="103.91" class="st5" width="29.05" height="29.05"/>
<rect x="29.86" y="139.02" class="st6" width="29.05" height="29.05"/>
<rect x="29.86" y="174.12" class="st0" width="29.05" height="29.05"/>
</svg>
